<svg baseProfile="full" height="100%" version="1.1" viewBox="25.0,5.0,475.0,240.0" width="100%" xmlns="http://www.w3.org/2000/svg" xmlns:ev="http://www.w3.org/2001/xml-events" xmlns:xlink="http://www.w3.org/1999/xlink"><defs /><g><line stroke="lightgrey" stroke-dasharray="2" x1="110.0" x2="109.0" y1="15.0" y2="15.0" /><line stroke="lightgrey" stroke-dasharray="2" x1="90.0" x2="109.0" y1="35.0" y2="35.0" /><line stroke="lightgrey" stroke-dasharray="2" x1="90.0" x2="109.0" y1="55.0" y2="55.0" /><line stroke="lightgrey" stroke-dasharray="2" x1="110.0" x2="109.0" y1="75.0" y2="75.0" /><line stroke="lightgrey" stroke-dasharray="2" x1="90.0" x2="109.0" y1="95.0" y2="95.0" /><line stroke="lightgrey" stroke-dasharray="2" x1="70.0" x2="109.0" y1="115.0" y2="115.0" /><line stroke="lightgrey" stroke-dasharray="2" x1="50.0" x2="109.0" y1="135.0" y2="135.0" /><line stroke="lightgrey" stroke-dasharray="2" x1="90.0" x2="109.0" y1="155.0" y2="155.0" /><line stroke="lightgrey" stroke-dasharray="2" x1="70.0" x2="109.0" y1="175.0" y2="175.0" /><line stroke="lightgrey" stroke-dasharray="2" x1="50.0" x2="109.0" y1="195.0" y2="195.0" /><line stroke="lightgrey" stroke-dasharray="2" x1="90.0" x2="89.0" y1="215.0" y2="215.0" /><line stroke="lightgrey" stroke-dasharray="2" x1="50.0" x2="49.0" y1="235.0" y2="235.0" /></g><g><line stroke="#c65353" stroke-width="2.0" x1="95.0" x2="95.0" y1="15.0" y2="75.0" /><line stroke="#5353c6" stroke-width="2.0" x1="75.0" x2="75.0" y1="95.0" y2="155.0" /><line stroke="#c653c6" stroke-width="2.0" x1="55.0" x2="55.0" y1="115.0" y2="175.0" /><line stroke="#c65353" stroke-width="2.0" x1="35.0" x2="35.0" y1="135.0" y2="195.0" /><line stroke="#53c6c6" stroke-width="2.0" x1="95.0" x2="95.0" y1="75.0" y2="180.0" /><line stroke="#d98c8c" stroke-width="2.0" x1="75.0" x2="75.0" y1="155.0" y2="215.0" /><line stroke="#8cd98c" stroke-width="2.0" x1="35.0" x2="35.0" y1="195.0" y2="235.0" /></g><g><line stroke="white" stroke-width="6.0" x1="75.0" x2="80.0" y1="35.0" y2="35.0" /><line stroke="white" stroke-width="6.0" x1="75.0" x2="80.0" y1="55.0" y2="55.0" /><line stroke="white" stroke-width="6.0" x1="75.0" x2="80.0" y1="95.0" y2="95.0" /><line stroke="white" stroke-width="6.0" x1="55.0" x2="80.0" y1="115.0" y2="115.0" /><line stroke="white" stroke-width="6.0" x1="35.0" x2="80.0" y1="135.0" y2="135.0" /><line stroke="white" stroke-width="6.0" x1="35.0" x2="80.0" y1="195.0" y2="195.0" /></g><g><path d="M 95.0,20.0 a15.0,15.0 0 0,1 -15.0,15.0" fill="none" stroke="#c65353" stroke-width="2.0" /><line stroke="#c65353" stroke-width="2.0" x1="75.0" x2="80.0" y1="35.0" y2="35.0" /><path d="M 95.0,40.0 a15.0,15.0 0 0,1 -15.0,15.0" fill="none" stroke="#c65353" stroke-width="2.0" /><line stroke="#c65353" stroke-width="2.0" x1="75.0" x2="80.0" y1="55.0" y2="55.0" /><path d="M 95.0,80.0 a15.0,15.0 0 0,1 -15.0,15.0" fill="none" stroke="#53c6c6" stroke-width="2.0" /><line stroke="#53c6c6" stroke-width="2.0" x1="75.0" x2="80.0" y1="95.0" y2="95.0" /><path d="M 95.0,100.0 a15.0,15.0 0 0,1 -15.0,15.0" fill="none" stroke="#53c6c6" stroke-width="2.0" /><line stroke="#53c6c6" stroke-width="2.0" x1="55.0" x2="80.0" y1="115.0" y2="115.0" /><path d="M 95.0,120.0 a15.0,15.0 0 0,1 -15.0,15.0" fill="none" stroke="#53c6c6" stroke-width="2.0" /><line stroke="#53c6c6" stroke-width="2.0" x1="35.0" x2="80.0" y1="135.0" y2="135.0" /><path d="M 95.0,180.0 a15.0,15.0 0 0,1 -15.0,15.0" fill="none" stroke="#53c6c6" stroke-width="2.0" /><line stroke="#53c6c6" stroke-width="2.0" x1="35.0" x2="80.0" y1="195.0" y2="195.0" /></g><g><circle cx="95.0" cy="15.0" fill="#c65353" id="Ncount" r="6.0" stroke="white" stroke-width="2.0" /><text dominant-baseline="middle" font-family="sans-serif" font-size="inherit" x="115.0" y="15.0">count</text><circle cx="75.0" cy="35.0" fill="#c6c653" id="NsummaryFiles" r="6.0" stroke="white" stroke-width="2.0" /><text dominant-baseline="middle" font-family="sans-serif" font-size="inherit" x="115.0" y="35.0">summaryFiles</text><circle cx="75.0" cy="55.0" fill="#53c653" id="NsampleCleanup" r="6.0" stroke="white" stroke-width="2.0" /><text dominant-baseline="middle" font-family="sans-serif" font-size="inherit" x="115.0" y="55.0">sampleCleanup</text><circle cx="95.0" cy="75.0" fill="#53c6c6" id="NseuratQC" r="6.0" stroke="white" stroke-width="2.0" /><text dominant-baseline="middle" font-family="sans-serif" font-size="inherit" x="115.0" y="75.0">seuratQC</text><circle cx="75.0" cy="95.0" fill="#5353c6" id="NseuratIntegrate" r="6.0" stroke="white" stroke-width="2.0" /><text dominant-baseline="middle" font-family="sans-serif" font-size="inherit" x="115.0" y="95.0">seuratIntegrate</text><circle cx="55.0" cy="115.0" fill="#c653c6" id="NseuratQCReport" r="6.0" stroke="white" stroke-width="2.0" /><text dominant-baseline="middle" font-family="sans-serif" font-size="inherit" x="115.0" y="115.0">seuratQCReport</text><circle cx="35.0" cy="135.0" fill="#c65353" id="NcellFilterSummary" r="6.0" stroke="white" stroke-width="2.0" /><text dominant-baseline="middle" font-family="sans-serif" font-size="inherit" x="115.0" y="135.0">cellFilterSummary</text><circle cx="75.0" cy="155.0" fill="#d98c8c" id="NseuratIntegrateSummaryReport" r="6.0" stroke="white" stroke-width="2.0" /><text dominant-baseline="middle" font-family="sans-serif" font-size="inherit" x="115.0" y="155.0">seuratIntegrateSummaryReport</text><circle cx="55.0" cy="175.0" fill="#d9d98c" id="NcopySeuratQCReport" r="6.0" stroke="white" stroke-width="2.0" /><text dominant-baseline="middle" font-family="sans-serif" font-size="inherit" x="115.0" y="175.0">copySeuratQCReport</text><circle cx="35.0" cy="195.0" fill="#8cd98c" id="NseuratQCSummaryReport" r="6.0" stroke="white" stroke-width="2.0" /><text dominant-baseline="middle" font-family="sans-serif" font-size="inherit" x="115.0" y="195.0">seuratQCSummaryReport</text><circle cx="75.0" cy="215.0" fill="#8cd9d9" id="NcopySeuratIntegrateSummaryReport" r="6.0" stroke="white" stroke-width="2.0" /><text dominant-baseline="middle" font-family="sans-serif" font-size="inherit" x="95.0" y="215.0">copySeuratIntegrateSummaryReport</text><circle cx="35.0" cy="235.0" fill="#8c8cd9" id="NcopySeuratQCSummaryReport" r="6.0" stroke="white" stroke-width="2.0" /><text dominant-baseline="middle" font-family="sans-serif" font-size="inherit" x="55.0" y="235.0">copySeuratQCSummaryReport</text></g></svg>