<svg baseProfile="full" height="100%" version="1.1" viewBox="25.0,5.0,475.0,400.0" width="100%" xmlns="http://www.w3.org/2000/svg" xmlns:ev="http://www.w3.org/2001/xml-events" xmlns:xlink="http://www.w3.org/1999/xlink"><defs /><g><line stroke="lightgrey" stroke-dasharray="2" x1="150.0" x2="149.0" y1="15.0" y2="15.0" /><line stroke="lightgrey" stroke-dasharray="2" x1="130.0" x2="149.0" y1="35.0" y2="35.0" /><line stroke="lightgrey" stroke-dasharray="2" x1="130.0" x2="149.0" y1="55.0" y2="55.0" /><line stroke="lightgrey" stroke-dasharray="2" x1="130.0" x2="149.0" y1="75.0" y2="75.0" /><line stroke="lightgrey" stroke-dasharray="2" x1="130.0" x2="149.0" y1="95.0" y2="95.0" /><line stroke="lightgrey" stroke-dasharray="2" x1="150.0" x2="149.0" y1="115.0" y2="115.0" /><line stroke="lightgrey" stroke-dasharray="2" x1="150.0" x2="149.0" y1="135.0" y2="135.0" /><line stroke="lightgrey" stroke-dasharray="2" x1="150.0" x2="149.0" y1="155.0" y2="155.0" /><line stroke="lightgrey" stroke-dasharray="2" x1="110.0" x2="149.0" y1="175.0" y2="175.0" /><line stroke="lightgrey" stroke-dasharray="2" x1="110.0" x2="149.0" y1="195.0" y2="195.0" /><line stroke="lightgrey" stroke-dasharray="2" x1="90.0" x2="149.0" y1="215.0" y2="215.0" /><line stroke="lightgrey" stroke-dasharray="2" x1="130.0" x2="149.0" y1="235.0" y2="235.0" /><line stroke="lightgrey" stroke-dasharray="2" x1="70.0" x2="149.0" y1="255.0" y2="255.0" /><line stroke="lightgrey" stroke-dasharray="2" x1="110.0" x2="149.0" y1="275.0" y2="275.0" /><line stroke="lightgrey" stroke-dasharray="2" x1="90.0" x2="149.0" y1="295.0" y2="295.0" /><line stroke="lightgrey" stroke-dasharray="2" x1="50.0" x2="149.0" y1="315.0" y2="315.0" /><line stroke="lightgrey" stroke-dasharray="2" x1="130.0" x2="149.0" y1="335.0" y2="335.0" /><line stroke="lightgrey" stroke-dasharray="2" x1="150.0" x2="149.0" y1="355.0" y2="355.0" /><line stroke="lightgrey" stroke-dasharray="2" x1="150.0" x2="149.0" y1="375.0" y2="375.0" /><line stroke="lightgrey" stroke-dasharray="2" x1="110.0" x2="149.0" y1="395.0" y2="395.0" /></g><g><line stroke="#c65353" stroke-width="2.0" x1="135.0" x2="135.0" y1="15.0" y2="115.0" /><line stroke="#5353c6" stroke-width="2.0" x1="115.0" x2="115.0" y1="95.0" y2="235.0" /><line stroke="#8cd98c" stroke-width="2.0" x1="95.0" x2="95.0" y1="195.0" y2="275.0" /><line stroke="#8cd9d9" stroke-width="2.0" x1="75.0" x2="75.0" y1="215.0" y2="295.0" /><line stroke="#8c8cd9" stroke-width="2.0" x1="115.0" x2="115.0" y1="235.0" y2="335.0" /><line stroke="#d98c8c" stroke-width="2.0" x1="135.0" x2="135.0" y1="155.0" y2="355.0" /><line stroke="#d98cd9" stroke-width="2.0" x1="55.0" x2="55.0" y1="255.0" y2="380.0" /><line stroke="#993333" stroke-width="2.0" x1="75.0" x2="75.0" y1="295.0" y2="380.0" /><line stroke="#d98c8c" stroke-width="2.0" x1="95.0" x2="95.0" y1="275.0" y2="395.0" /><line stroke="#333399" stroke-width="2.0" x1="135.0" x2="135.0" y1="375.0" y2="380.0" /></g><g><line stroke="white" stroke-width="6.0" x1="115.0" x2="120.0" y1="55.0" y2="55.0" /><line stroke="white" stroke-width="6.0" x1="115.0" x2="120.0" y1="75.0" y2="75.0" /><line stroke="white" stroke-width="6.0" x1="115.0" x2="120.0" y1="95.0" y2="95.0" /><line stroke="white" stroke-width="6.0" x1="130.0" x2="135.0" y1="135.0" y2="135.0" /><line stroke="white" stroke-width="6.0" x1="130.0" x2="135.0" y1="155.0" y2="155.0" /><line stroke="white" stroke-width="6.0" x1="95.0" x2="100.0" y1="175.0" y2="175.0" /><line stroke="white" stroke-width="6.0" x1="95.0" x2="120.0" y1="195.0" y2="195.0" /><line stroke="white" stroke-width="6.0" x1="75.0" x2="120.0" y1="215.0" y2="215.0" /><line stroke="white" stroke-width="6.0" x1="110.0" x2="115.0" y1="235.0" y2="235.0" /><line stroke="white" stroke-width="6.0" x1="115.0" x2="120.0" y1="235.0" y2="235.0" /><line stroke="white" stroke-width="6.0" x1="55.0" x2="120.0" y1="255.0" y2="255.0" /><line stroke="white" stroke-width="6.0" x1="95.0" x2="120.0" y1="275.0" y2="275.0" /><line stroke="white" stroke-width="6.0" x1="75.0" x2="120.0" y1="295.0" y2="295.0" /><line stroke="white" stroke-width="6.0" x1="35.0" x2="100.0" y1="315.0" y2="315.0" /><line stroke="white" stroke-width="6.0" x1="70.0" x2="135.0" y1="355.0" y2="355.0" /><line stroke="white" stroke-width="6.0" x1="70.0" x2="135.0" y1="375.0" y2="375.0" /><line stroke="white" stroke-width="6.0" x1="70.0" x2="95.0" y1="395.0" y2="395.0" /><line stroke="white" stroke-width="6.0" x1="95.0" x2="120.0" y1="395.0" y2="395.0" /></g><g><path d="M 135.0,40.0 a15.0,15.0 0 0,1 -15.0,15.0" fill="none" stroke="#c65353" stroke-width="2.0" /><line stroke="#c65353" stroke-width="2.0" x1="115.0" x2="120.0" y1="55.0" y2="55.0" /><path d="M 135.0,60.0 a15.0,15.0 0 0,1 -15.0,15.0" fill="none" stroke="#c65353" stroke-width="2.0" /><line stroke="#c65353" stroke-width="2.0" x1="115.0" x2="120.0" y1="75.0" y2="75.0" /><path d="M 135.0,80.0 a15.0,15.0 0 0,1 -15.0,15.0" fill="none" stroke="#c65353" stroke-width="2.0" /><line stroke="#c65353" stroke-width="2.0" x1="115.0" x2="120.0" y1="95.0" y2="95.0" /><path d="M 115.0,120.0 a15.0,15.0 0 0,0 15.0,15.0" fill="none" stroke="#5353c6" stroke-width="2.0" /><line stroke="#5353c6" stroke-width="2.0" x1="130.0" x2="135.0" y1="135.0" y2="135.0" /><path d="M 115.0,140.0 a15.0,15.0 0 0,0 15.0,15.0" fill="none" stroke="#5353c6" stroke-width="2.0" /><line stroke="#5353c6" stroke-width="2.0" x1="130.0" x2="135.0" y1="155.0" y2="155.0" /><path d="M 115.0,160.0 a15.0,15.0 0 0,1 -15.0,15.0" fill="none" stroke="#5353c6" stroke-width="2.0" /><line stroke="#5353c6" stroke-width="2.0" x1="95.0" x2="100.0" y1="175.0" y2="175.0" /><path d="M 115.0,180.0 a15.0,15.0 0 0,1 -15.0,15.0" fill="none" stroke="#5353c6" stroke-width="2.0" /><path d="M 135.0,180.0 a15.0,15.0 0 0,1 -15.0,15.0" fill="none" stroke="#d98c8c" stroke-width="2.0" /><line stroke="#d98c8c" stroke-width="2.0" x1="95.0" x2="120.0" y1="195.0" y2="195.0" /><path d="M 115.0,200.0 a15.0,15.0 0 0,1 -15.0,15.0" fill="none" stroke="#5353c6" stroke-width="2.0" /><path d="M 135.0,200.0 a15.0,15.0 0 0,1 -15.0,15.0" fill="none" stroke="#d98c8c" stroke-width="2.0" /><line stroke="#d98c8c" stroke-width="2.0" x1="75.0" x2="120.0" y1="215.0" y2="215.0" /><path d="M 95.0,220.0 a15.0,15.0 0 0,0 15.0,15.0" fill="none" stroke="#8cd98c" stroke-width="2.0" /><line stroke="#8cd98c" stroke-width="2.0" x1="110.0" x2="115.0" y1="235.0" y2="235.0" /><path d="M 135.0,220.0 a15.0,15.0 0 0,1 -15.0,15.0" fill="none" stroke="#d98c8c" stroke-width="2.0" /><line stroke="#d98c8c" stroke-width="2.0" x1="115.0" x2="120.0" y1="235.0" y2="235.0" /><path d="M 95.0,240.0 a15.0,15.0 0 0,1 -15.0,15.0" fill="none" stroke="#8cd98c" stroke-width="2.0" /><path d="M 135.0,240.0 a15.0,15.0 0 0,1 -15.0,15.0" fill="none" stroke="#d98c8c" stroke-width="2.0" /><line stroke="#d98c8c" stroke-width="2.0" x1="55.0" x2="120.0" y1="255.0" y2="255.0" /><path d="M 135.0,260.0 a15.0,15.0 0 0,1 -15.0,15.0" fill="none" stroke="#d98c8c" stroke-width="2.0" /><line stroke="#d98c8c" stroke-width="2.0" x1="95.0" x2="120.0" y1="275.0" y2="275.0" /><path d="M 135.0,280.0 a15.0,15.0 0 0,1 -15.0,15.0" fill="none" stroke="#d98c8c" stroke-width="2.0" /><line stroke="#d98c8c" stroke-width="2.0" x1="75.0" x2="120.0" y1="295.0" y2="295.0" /><path d="M 115.0,300.0 a15.0,15.0 0 0,1 -15.0,15.0" fill="none" stroke="#8c8cd9" stroke-width="2.0" /><line stroke="#8c8cd9" stroke-width="2.0" x1="35.0" x2="100.0" y1="315.0" y2="315.0" /><path d="M 55.0,340.0 a15.0,15.0 0 0,0 15.0,15.0" fill="none" stroke="#d98cd9" stroke-width="2.0" /><path d="M 75.0,340.0 a15.0,15.0 0 0,0 15.0,15.0" fill="none" stroke="#993333" stroke-width="2.0" /><path d="M 95.0,340.0 a15.0,15.0 0 0,0 15.0,15.0" fill="none" stroke="#d98c8c" stroke-width="2.0" /><line stroke="#d98cd9" stroke-width="2.0" x1="70.0" x2="135.0" y1="355.0" y2="355.0" /><path d="M 55.0,360.0 a15.0,15.0 0 0,0 15.0,15.0" fill="none" stroke="#d98cd9" stroke-width="2.0" /><path d="M 75.0,360.0 a15.0,15.0 0 0,0 15.0,15.0" fill="none" stroke="#993333" stroke-width="2.0" /><path d="M 95.0,360.0 a15.0,15.0 0 0,0 15.0,15.0" fill="none" stroke="#d98c8c" stroke-width="2.0" /><line stroke="#d98cd9" stroke-width="2.0" x1="70.0" x2="135.0" y1="375.0" y2="375.0" /><path d="M 55.0,380.0 a15.0,15.0 0 0,0 15.0,15.0" fill="none" stroke="#d98cd9" stroke-width="2.0" /><path d="M 75.0,380.0 a15.0,15.0 0 0,0 15.0,15.0" fill="none" stroke="#993333" stroke-width="2.0" /><line stroke="#d98cd9" stroke-width="2.0" x1="70.0" x2="95.0" y1="395.0" y2="395.0" /><path d="M 135.0,380.0 a15.0,15.0 0 0,1 -15.0,15.0" fill="none" stroke="#333399" stroke-width="2.0" /><line stroke="#333399" stroke-width="2.0" x1="95.0" x2="120.0" y1="395.0" y2="395.0" /></g><g><circle cx="135.0" cy="15.0" fill="#c65353" id="Ntrim" r="6.0" stroke="white" stroke-width="2.0" /><text dominant-baseline="middle" font-family="sans-serif" font-size="inherit" x="155.0" y="15.0">trim</text><circle cx="115.0" cy="35.0" fill="#c6c653" id="Nrawfastqc" r="6.0" stroke="white" stroke-width="2.0" /><text dominant-baseline="middle" font-family="sans-serif" font-size="inherit" x="155.0" y="35.0">rawfastqc</text><circle cx="115.0" cy="55.0" fill="#53c653" id="Nfastq_screen" r="6.0" stroke="white" stroke-width="2.0" /><text dominant-baseline="middle" font-family="sans-serif" font-size="inherit" x="155.0" y="55.0">fastq_screen</text><circle cx="115.0" cy="75.0" fill="#53c6c6" id="Nkraken" r="6.0" stroke="white" stroke-width="2.0" /><text dominant-baseline="middle" font-family="sans-serif" font-size="inherit" x="155.0" y="75.0">kraken</text><circle cx="115.0" cy="95.0" fill="#5353c6" id="NBWA" r="6.0" stroke="white" stroke-width="2.0" /><text dominant-baseline="middle" font-family="sans-serif" font-size="inherit" x="155.0" y="95.0">BWA</text><circle cx="135.0" cy="115.0" fill="#c653c6" id="Nfastqc" r="6.0" stroke="white" stroke-width="2.0" /><text dominant-baseline="middle" font-family="sans-serif" font-size="inherit" x="155.0" y="115.0">fastqc</text><circle cx="135.0" cy="135.0" fill="#c65353" id="Npreseq" r="6.0" stroke="white" stroke-width="2.0" /><text dominant-baseline="middle" font-family="sans-serif" font-size="inherit" x="155.0" y="135.0">preseq</text><circle cx="135.0" cy="155.0" fill="#d98c8c" id="Ndedup" r="6.0" stroke="white" stroke-width="2.0" /><text dominant-baseline="middle" font-family="sans-serif" font-size="inherit" x="155.0" y="155.0">dedup</text><circle cx="95.0" cy="175.0" fill="#d9d98c" id="NNRF" r="6.0" stroke="white" stroke-width="2.0" /><text dominant-baseline="middle" font-family="sans-serif" font-size="inherit" x="155.0" y="175.0">NRF</text><circle cx="95.0" cy="195.0" fill="#8cd98c" id="Nppqt" r="6.0" stroke="white" stroke-width="2.0" /><text dominant-baseline="middle" font-family="sans-serif" font-size="inherit" x="155.0" y="195.0">ppqt</text><circle cx="75.0" cy="215.0" fill="#8cd9d9" id="Ninsert_size" r="6.0" stroke="white" stroke-width="2.0" /><text dominant-baseline="middle" font-family="sans-serif" font-size="inherit" x="155.0" y="215.0">insert_size</text><circle cx="115.0" cy="235.0" fill="#8c8cd9" id="Nbam2bw" r="6.0" stroke="white" stroke-width="2.0" /><text dominant-baseline="middle" font-family="sans-serif" font-size="inherit" x="155.0" y="235.0">bam2bw</text><circle cx="55.0" cy="255.0" fill="#d98cd9" id="NMACS2_narrow" r="6.0" stroke="white" stroke-width="2.0" /><text dominant-baseline="middle" font-family="sans-serif" font-size="inherit" x="155.0" y="255.0">MACS2_narrow</text><circle cx="95.0" cy="275.0" fill="#d98c8c" id="NMACS2_broad" r="6.0" stroke="white" stroke-width="2.0" /><text dominant-baseline="middle" font-family="sans-serif" font-size="inherit" x="155.0" y="275.0">MACS2_broad</text><circle cx="75.0" cy="295.0" fill="#993333" id="NSICER" r="6.0" stroke="white" stroke-width="2.0" /><text dominant-baseline="middle" font-family="sans-serif" font-size="inherit" x="155.0" y="295.0">SICER</text><circle cx="35.0" cy="315.0" fill="#999933" id="Ndeeptools_QC" r="6.0" stroke="white" stroke-width="2.0" /><text dominant-baseline="middle" font-family="sans-serif" font-size="inherit" x="155.0" y="315.0">deeptools_QC</text><circle cx="115.0" cy="335.0" fill="#339933" id="Ninputnorm" r="6.0" stroke="white" stroke-width="2.0" /><text dominant-baseline="middle" font-family="sans-serif" font-size="inherit" x="155.0" y="335.0">inputnorm</text><circle cx="135.0" cy="355.0" fill="#339999" id="NFRiP" r="6.0" stroke="white" stroke-width="2.0" /><text dominant-baseline="middle" font-family="sans-serif" font-size="inherit" x="155.0" y="355.0">FRiP</text><circle cx="135.0" cy="375.0" fill="#333399" id="Ndiffbind" r="6.0" stroke="white" stroke-width="2.0" /><text dominant-baseline="middle" font-family="sans-serif" font-size="inherit" x="155.0" y="375.0">diffbind</text><circle cx="95.0" cy="395.0" fill="#993399" id="NUROPA" r="6.0" stroke="white" stroke-width="2.0" /><text dominant-baseline="middle" font-family="sans-serif" font-size="inherit" x="155.0" y="395.0">UROPA</text></g></svg>