<svg baseProfile="full" height="100%" version="1.1" viewBox="25.0,5.0,475.0,780.0" width="100%" xmlns="http://www.w3.org/2000/svg" xmlns:ev="http://www.w3.org/2001/xml-events" xmlns:xlink="http://www.w3.org/1999/xlink"><defs /><g><line stroke="lightgrey" stroke-dasharray="2" x1="170.0" x2="169.0" y1="15.0" y2="15.0" /><line stroke="lightgrey" stroke-dasharray="2" x1="150.0" x2="169.0" y1="35.0" y2="35.0" /><line stroke="lightgrey" stroke-dasharray="2" x1="170.0" x2="169.0" y1="55.0" y2="55.0" /><line stroke="lightgrey" stroke-dasharray="2" x1="170.0" x2="169.0" y1="75.0" y2="75.0" /><line stroke="lightgrey" stroke-dasharray="2" x1="170.0" x2="169.0" y1="95.0" y2="95.0" /><line stroke="lightgrey" stroke-dasharray="2" x1="170.0" x2="169.0" y1="115.0" y2="115.0" /><line stroke="lightgrey" stroke-dasharray="2" x1="170.0" x2="169.0" y1="135.0" y2="135.0" /><line stroke="lightgrey" stroke-dasharray="2" x1="150.0" x2="169.0" y1="155.0" y2="155.0" /><line stroke="lightgrey" stroke-dasharray="2" x1="170.0" x2="169.0" y1="175.0" y2="175.0" /><line stroke="lightgrey" stroke-dasharray="2" x1="130.0" x2="169.0" y1="195.0" y2="195.0" /><line stroke="lightgrey" stroke-dasharray="2" x1="110.0" x2="169.0" y1="215.0" y2="215.0" /><line stroke="lightgrey" stroke-dasharray="2" x1="90.0" x2="169.0" y1="235.0" y2="235.0" /><line stroke="lightgrey" stroke-dasharray="2" x1="90.0" x2="169.0" y1="255.0" y2="255.0" /><line stroke="lightgrey" stroke-dasharray="2" x1="170.0" x2="169.0" y1="275.0" y2="275.0" /><line stroke="lightgrey" stroke-dasharray="2" x1="130.0" x2="149.0" y1="295.0" y2="295.0" /><line stroke="lightgrey" stroke-dasharray="2" x1="170.0" x2="169.0" y1="315.0" y2="315.0" /><line stroke="lightgrey" stroke-dasharray="2" x1="170.0" x2="169.0" y1="335.0" y2="335.0" /><line stroke="lightgrey" stroke-dasharray="2" x1="110.0" x2="149.0" y1="355.0" y2="355.0" /><line stroke="lightgrey" stroke-dasharray="2" x1="130.0" x2="149.0" y1="375.0" y2="375.0" /><line stroke="lightgrey" stroke-dasharray="2" x1="150.0" x2="149.0" y1="395.0" y2="395.0" /><line stroke="lightgrey" stroke-dasharray="2" x1="110.0" x2="149.0" y1="415.0" y2="415.0" /><line stroke="lightgrey" stroke-dasharray="2" x1="170.0" x2="169.0" y1="435.0" y2="435.0" /><line stroke="lightgrey" stroke-dasharray="2" x1="90.0" x2="169.0" y1="455.0" y2="455.0" /><line stroke="lightgrey" stroke-dasharray="2" x1="70.0" x2="169.0" y1="475.0" y2="475.0" /><line stroke="lightgrey" stroke-dasharray="2" x1="130.0" x2="169.0" y1="495.0" y2="495.0" /><line stroke="lightgrey" stroke-dasharray="2" x1="150.0" x2="169.0" y1="515.0" y2="515.0" /><line stroke="lightgrey" stroke-dasharray="2" x1="50.0" x2="169.0" y1="535.0" y2="535.0" /><line stroke="lightgrey" stroke-dasharray="2" x1="110.0" x2="169.0" y1="555.0" y2="555.0" /><line stroke="lightgrey" stroke-dasharray="2" x1="170.0" x2="169.0" y1="575.0" y2="575.0" /><line stroke="lightgrey" stroke-dasharray="2" x1="130.0" x2="169.0" y1="595.0" y2="595.0" /><line stroke="lightgrey" stroke-dasharray="2" x1="150.0" x2="169.0" y1="615.0" y2="615.0" /><line stroke="lightgrey" stroke-dasharray="2" x1="50.0" x2="169.0" y1="635.0" y2="635.0" /><line stroke="lightgrey" stroke-dasharray="2" x1="50.0" x2="149.0" y1="655.0" y2="655.0" /><line stroke="lightgrey" stroke-dasharray="2" x1="50.0" x2="49.0" y1="675.0" y2="675.0" /><line stroke="lightgrey" stroke-dasharray="2" x1="50.0" x2="49.0" y1="695.0" y2="695.0" /><line stroke="lightgrey" stroke-dasharray="2" x1="130.0" x2="129.0" y1="715.0" y2="715.0" /><line stroke="lightgrey" stroke-dasharray="2" x1="50.0" x2="129.0" y1="735.0" y2="735.0" /><line stroke="lightgrey" stroke-dasharray="2" x1="130.0" x2="129.0" y1="755.0" y2="755.0" /><line stroke="lightgrey" stroke-dasharray="2" x1="50.0" x2="49.0" y1="775.0" y2="775.0" /></g><g><line stroke="#c65353" stroke-width="2.0" x1="155.0" x2="155.0" y1="15.0" y2="55.0" /><line stroke="#c6c653" stroke-width="2.0" x1="135.0" x2="135.0" y1="35.0" y2="155.0" /><line stroke="#c65353" stroke-width="2.0" x1="155.0" x2="155.0" y1="135.0" y2="175.0" /><line stroke="#d9d98c" stroke-width="2.0" x1="155.0" x2="155.0" y1="175.0" y2="275.0" /><line stroke="#8cd98c" stroke-width="2.0" x1="115.0" x2="115.0" y1="195.0" y2="295.0" /><line stroke="#8cd9d9" stroke-width="2.0" x1="95.0" x2="95.0" y1="215.0" y2="355.0" /><line stroke="#993333" stroke-width="2.0" x1="115.0" x2="115.0" y1="295.0" y2="375.0" /><line stroke="#d98c8c" stroke-width="2.0" x1="135.0" x2="135.0" y1="155.0" y2="360.0" /><line stroke="#333399" stroke-width="2.0" x1="115.0" x2="115.0" y1="375.0" y2="495.0" /><line stroke="#993399" stroke-width="2.0" x1="135.0" x2="135.0" y1="395.0" y2="515.0" /><line stroke="#993333" stroke-width="2.0" x1="95.0" x2="95.0" y1="415.0" y2="555.0" /><line stroke="#c6c653" stroke-width="2.0" x1="75.0" x2="75.0" y1="455.0" y2="560.0" /><line stroke="#c65353" stroke-width="2.0" x1="155.0" x2="155.0" y1="435.0" y2="575.0" /><line stroke="#53c6c6" stroke-width="2.0" x1="115.0" x2="115.0" y1="495.0" y2="595.0" /><line stroke="#5353c6" stroke-width="2.0" x1="135.0" x2="135.0" y1="515.0" y2="615.0" /><line stroke="#c653c6" stroke-width="2.0" x1="35.0" x2="35.0" y1="535.0" y2="635.0" /><line stroke="#c65353" stroke-width="2.0" x1="95.0" x2="95.0" y1="555.0" y2="620.0" /><line stroke="#d98c8c" stroke-width="2.0" x1="155.0" x2="155.0" y1="575.0" y2="620.0" /><line stroke="#8cd9d9" stroke-width="2.0" x1="35.0" x2="35.0" y1="635.0" y2="655.0" /><line stroke="#53c653" stroke-width="2.0" x1="55.0" x2="55.0" y1="475.0" y2="640.0" /><line stroke="#d9d98c" stroke-width="2.0" x1="115.0" x2="115.0" y1="595.0" y2="640.0" /><line stroke="#8cd98c" stroke-width="2.0" x1="135.0" x2="135.0" y1="615.0" y2="640.0" /><line stroke="#8c8cd9" stroke-width="2.0" x1="35.0" x2="35.0" y1="655.0" y2="675.0" /><line stroke="#d98cd9" stroke-width="2.0" x1="35.0" x2="35.0" y1="675.0" y2="695.0" /><line stroke="#d98c8c" stroke-width="2.0" x1="35.0" x2="35.0" y1="695.0" y2="735.0" /><line stroke="#993333" stroke-width="2.0" x1="115.0" x2="115.0" y1="715.0" y2="755.0" /><line stroke="#999933" stroke-width="2.0" x1="35.0" x2="35.0" y1="735.0" y2="775.0" /></g><g><line stroke="white" stroke-width="6.0" x1="135.0" x2="140.0" y1="35.0" y2="35.0" /><line stroke="white" stroke-width="6.0" x1="150.0" x2="155.0" y1="75.0" y2="75.0" /><line stroke="white" stroke-width="6.0" x1="150.0" x2="155.0" y1="95.0" y2="95.0" /><line stroke="white" stroke-width="6.0" x1="150.0" x2="155.0" y1="115.0" y2="115.0" /><line stroke="white" stroke-width="6.0" x1="150.0" x2="155.0" y1="135.0" y2="135.0" /><line stroke="white" stroke-width="6.0" x1="115.0" x2="120.0" y1="195.0" y2="195.0" /><line stroke="white" stroke-width="6.0" x1="95.0" x2="140.0" y1="215.0" y2="215.0" /><line stroke="white" stroke-width="6.0" x1="75.0" x2="140.0" y1="235.0" y2="235.0" /><line stroke="white" stroke-width="6.0" x1="75.0" x2="140.0" y1="255.0" y2="255.0" /><line stroke="white" stroke-width="6.0" x1="110.0" x2="155.0" y1="315.0" y2="315.0" /><line stroke="white" stroke-width="6.0" x1="110.0" x2="155.0" y1="335.0" y2="335.0" /><line stroke="white" stroke-width="6.0" x1="115.0" x2="120.0" y1="375.0" y2="375.0" /><line stroke="white" stroke-width="6.0" x1="130.0" x2="135.0" y1="395.0" y2="395.0" /><line stroke="white" stroke-width="6.0" x1="95.0" x2="100.0" y1="415.0" y2="415.0" /><line stroke="white" stroke-width="6.0" x1="130.0" x2="155.0" y1="435.0" y2="435.0" /><line stroke="white" stroke-width="6.0" x1="75.0" x2="100.0" y1="455.0" y2="455.0" /><line stroke="white" stroke-width="6.0" x1="55.0" x2="100.0" y1="475.0" y2="475.0" /><line stroke="white" stroke-width="6.0" x1="35.0" x2="80.0" y1="535.0" y2="535.0" /><line stroke="white" stroke-width="6.0" x1="90.0" x2="155.0" y1="575.0" y2="575.0" /><line stroke="white" stroke-width="6.0" x1="35.0" x2="140.0" y1="635.0" y2="635.0" /><line stroke="white" stroke-width="6.0" x1="35.0" x2="120.0" y1="655.0" y2="655.0" /><line stroke="white" stroke-width="6.0" x1="50.0" x2="115.0" y1="715.0" y2="715.0" /></g><g><path d="M 155.0,20.0 a15.0,15.0 0 0,1 -15.0,15.0" fill="none" stroke="#c65353" stroke-width="2.0" /><line stroke="#c65353" stroke-width="2.0" x1="135.0" x2="140.0" y1="35.0" y2="35.0" /><path d="M 135.0,60.0 a15.0,15.0 0 0,0 15.0,15.0" fill="none" stroke="#c6c653" stroke-width="2.0" /><line stroke="#c6c653" stroke-width="2.0" x1="150.0" x2="155.0" y1="75.0" y2="75.0" /><path d="M 135.0,80.0 a15.0,15.0 0 0,0 15.0,15.0" fill="none" stroke="#c6c653" stroke-width="2.0" /><line stroke="#c6c653" stroke-width="2.0" x1="150.0" x2="155.0" y1="95.0" y2="95.0" /><path d="M 135.0,100.0 a15.0,15.0 0 0,0 15.0,15.0" fill="none" stroke="#c6c653" stroke-width="2.0" /><line stroke="#c6c653" stroke-width="2.0" x1="150.0" x2="155.0" y1="115.0" y2="115.0" /><path d="M 135.0,120.0 a15.0,15.0 0 0,0 15.0,15.0" fill="none" stroke="#c6c653" stroke-width="2.0" /><line stroke="#c6c653" stroke-width="2.0" x1="150.0" x2="155.0" y1="135.0" y2="135.0" /><path d="M 135.0,180.0 a15.0,15.0 0 0,1 -15.0,15.0" fill="none" stroke="#d98c8c" stroke-width="2.0" /><line stroke="#d98c8c" stroke-width="2.0" x1="115.0" x2="120.0" y1="195.0" y2="195.0" /><path d="M 155.0,200.0 a15.0,15.0 0 0,1 -15.0,15.0" fill="none" stroke="#d9d98c" stroke-width="2.0" /><line stroke="#d9d98c" stroke-width="2.0" x1="95.0" x2="140.0" y1="215.0" y2="215.0" /><path d="M 155.0,220.0 a15.0,15.0 0 0,1 -15.0,15.0" fill="none" stroke="#d9d98c" stroke-width="2.0" /><line stroke="#d9d98c" stroke-width="2.0" x1="75.0" x2="140.0" y1="235.0" y2="235.0" /><path d="M 155.0,240.0 a15.0,15.0 0 0,1 -15.0,15.0" fill="none" stroke="#d9d98c" stroke-width="2.0" /><line stroke="#d9d98c" stroke-width="2.0" x1="75.0" x2="140.0" y1="255.0" y2="255.0" /><path d="M 95.0,300.0 a15.0,15.0 0 0,0 15.0,15.0" fill="none" stroke="#8cd9d9" stroke-width="2.0" /><line stroke="#8cd9d9" stroke-width="2.0" x1="110.0" x2="155.0" y1="315.0" y2="315.0" /><path d="M 95.0,320.0 a15.0,15.0 0 0,0 15.0,15.0" fill="none" stroke="#8cd9d9" stroke-width="2.0" /><line stroke="#8cd9d9" stroke-width="2.0" x1="110.0" x2="155.0" y1="335.0" y2="335.0" /><path d="M 135.0,360.0 a15.0,15.0 0 0,1 -15.0,15.0" fill="none" stroke="#d98c8c" stroke-width="2.0" /><line stroke="#d98c8c" stroke-width="2.0" x1="115.0" x2="120.0" y1="375.0" y2="375.0" /><path d="M 115.0,380.0 a15.0,15.0 0 0,0 15.0,15.0" fill="none" stroke="#333399" stroke-width="2.0" /><line stroke="#333399" stroke-width="2.0" x1="130.0" x2="135.0" y1="395.0" y2="395.0" /><path d="M 115.0,400.0 a15.0,15.0 0 0,1 -15.0,15.0" fill="none" stroke="#333399" stroke-width="2.0" /><line stroke="#333399" stroke-width="2.0" x1="95.0" x2="100.0" y1="415.0" y2="415.0" /><path d="M 115.0,420.0 a15.0,15.0 0 0,0 15.0,15.0" fill="none" stroke="#333399" stroke-width="2.0" /><line stroke="#333399" stroke-width="2.0" x1="130.0" x2="155.0" y1="435.0" y2="435.0" /><path d="M 115.0,440.0 a15.0,15.0 0 0,1 -15.0,15.0" fill="none" stroke="#333399" stroke-width="2.0" /><line stroke="#333399" stroke-width="2.0" x1="75.0" x2="100.0" y1="455.0" y2="455.0" /><path d="M 115.0,460.0 a15.0,15.0 0 0,1 -15.0,15.0" fill="none" stroke="#333399" stroke-width="2.0" /><line stroke="#333399" stroke-width="2.0" x1="55.0" x2="100.0" y1="475.0" y2="475.0" /><path d="M 95.0,520.0 a15.0,15.0 0 0,1 -15.0,15.0" fill="none" stroke="#993333" stroke-width="2.0" /><line stroke="#993333" stroke-width="2.0" x1="35.0" x2="80.0" y1="535.0" y2="535.0" /><path d="M 75.0,560.0 a15.0,15.0 0 0,0 15.0,15.0" fill="none" stroke="#c6c653" stroke-width="2.0" /><line stroke="#c6c653" stroke-width="2.0" x1="90.0" x2="155.0" y1="575.0" y2="575.0" /><path d="M 95.0,620.0 a15.0,15.0 0 0,1 -15.0,15.0" fill="none" stroke="#c65353" stroke-width="2.0" /><path d="M 155.0,620.0 a15.0,15.0 0 0,1 -15.0,15.0" fill="none" stroke="#d98c8c" stroke-width="2.0" /><line stroke="#d98c8c" stroke-width="2.0" x1="35.0" x2="140.0" y1="635.0" y2="635.0" /><path d="M 55.0,640.0 a15.0,15.0 0 0,1 -15.0,15.0" fill="none" stroke="#53c653" stroke-width="2.0" /><path d="M 115.0,640.0 a15.0,15.0 0 0,1 -15.0,15.0" fill="none" stroke="#d9d98c" stroke-width="2.0" /><path d="M 135.0,640.0 a15.0,15.0 0 0,1 -15.0,15.0" fill="none" stroke="#8cd98c" stroke-width="2.0" /><line stroke="#8cd98c" stroke-width="2.0" x1="35.0" x2="120.0" y1="655.0" y2="655.0" /><path d="M 35.0,700.0 a15.0,15.0 0 0,0 15.0,15.0" fill="none" stroke="#d98c8c" stroke-width="2.0" /><line stroke="#d98c8c" stroke-width="2.0" x1="50.0" x2="115.0" y1="715.0" y2="715.0" /></g><g><circle cx="155.0" cy="15.0" fill="#c65353" id="Nfastp" r="6.0" stroke="white" stroke-width="2.0" /><text dominant-baseline="middle" font-family="sans-serif" font-size="inherit" x="175.0" y="15.0">fastp</text><circle cx="135.0" cy="35.0" fill="#c6c653" id="Nbwa_mem2" r="6.0" stroke="white" stroke-width="2.0" /><text dominant-baseline="middle" font-family="sans-serif" font-size="inherit" x="175.0" y="35.0">bwa_mem2</text><circle cx="155.0" cy="55.0" fill="#53c653" id="Nfastq_screen" r="6.0" stroke="white" stroke-width="2.0" /><text dominant-baseline="middle" font-family="sans-serif" font-size="inherit" x="175.0" y="55.0">fastq_screen</text><circle cx="155.0" cy="75.0" fill="#53c6c6" id="Nfastqc_bam" r="6.0" stroke="white" stroke-width="2.0" /><text dominant-baseline="middle" font-family="sans-serif" font-size="inherit" x="175.0" y="75.0">fastqc_bam</text><circle cx="155.0" cy="95.0" fill="#5353c6" id="Nqualimap" r="6.0" stroke="white" stroke-width="2.0" /><text dominant-baseline="middle" font-family="sans-serif" font-size="inherit" x="175.0" y="95.0">qualimap</text><circle cx="155.0" cy="115.0" fill="#c653c6" id="Nsamtools_flagstats" r="6.0" stroke="white" stroke-width="2.0" /><text dominant-baseline="middle" font-family="sans-serif" font-size="inherit" x="175.0" y="115.0">samtools_flagstats</text><circle cx="155.0" cy="135.0" fill="#c65353" id="Ndeepvariant" r="6.0" stroke="white" stroke-width="2.0" /><text dominant-baseline="middle" font-family="sans-serif" font-size="inherit" x="175.0" y="135.0">deepvariant</text><circle cx="135.0" cy="155.0" fill="#d98c8c" id="Ngatk_realign" r="6.0" stroke="white" stroke-width="2.0" /><text dominant-baseline="middle" font-family="sans-serif" font-size="inherit" x="175.0" y="155.0">gatk_realign</text><circle cx="155.0" cy="175.0" fill="#d9d98c" id="Nglnexus" r="6.0" stroke="white" stroke-width="2.0" /><text dominant-baseline="middle" font-family="sans-serif" font-size="inherit" x="175.0" y="175.0">glnexus</text><circle cx="115.0" cy="195.0" fill="#8cd98c" id="Ngatk_scatter_recal" r="6.0" stroke="white" stroke-width="2.0" /><text dominant-baseline="middle" font-family="sans-serif" font-size="inherit" x="175.0" y="195.0">gatk_scatter_recal</text><circle cx="95.0" cy="215.0" fill="#8cd9d9" id="Ngatk_selectvariants" r="6.0" stroke="white" stroke-width="2.0" /><text dominant-baseline="middle" font-family="sans-serif" font-size="inherit" x="175.0" y="215.0">gatk_selectvariants</text><circle cx="75.0" cy="235.0" fill="#8c8cd9" id="Nvcftools" r="6.0" stroke="white" stroke-width="2.0" /><text dominant-baseline="middle" font-family="sans-serif" font-size="inherit" x="175.0" y="235.0">vcftools</text><circle cx="75.0" cy="255.0" fill="#d98cd9" id="Ncollectvariantcallmetrics" r="6.0" stroke="white" stroke-width="2.0" /><text dominant-baseline="middle" font-family="sans-serif" font-size="inherit" x="175.0" y="255.0">collectvariantcallmetrics</text><circle cx="155.0" cy="275.0" fill="#d98c8c" id="Nsomalier" r="6.0" stroke="white" stroke-width="2.0" /><text dominant-baseline="middle" font-family="sans-serif" font-size="inherit" x="175.0" y="275.0">somalier</text><circle cx="115.0" cy="295.0" fill="#993333" id="Ngatk_gather_recal" r="6.0" stroke="white" stroke-width="2.0" /><text dominant-baseline="middle" font-family="sans-serif" font-size="inherit" x="155.0" y="295.0">gatk_gather_recal</text><circle cx="155.0" cy="315.0" fill="#999933" id="Nbcftools_stats" r="6.0" stroke="white" stroke-width="2.0" /><text dominant-baseline="middle" font-family="sans-serif" font-size="inherit" x="175.0" y="315.0">bcftools_stats</text><circle cx="155.0" cy="335.0" fill="#339933" id="Ngatk_varianteval" r="6.0" stroke="white" stroke-width="2.0" /><text dominant-baseline="middle" font-family="sans-serif" font-size="inherit" x="175.0" y="335.0">gatk_varianteval</text><circle cx="95.0" cy="355.0" fill="#339999" id="Nsnpeff" r="6.0" stroke="white" stroke-width="2.0" /><text dominant-baseline="middle" font-family="sans-serif" font-size="inherit" x="155.0" y="355.0">snpeff</text><circle cx="115.0" cy="375.0" fill="#333399" id="Ngatk_apply_recal" r="6.0" stroke="white" stroke-width="2.0" /><text dominant-baseline="middle" font-family="sans-serif" font-size="inherit" x="155.0" y="375.0">gatk_apply_recal</text><circle cx="135.0" cy="395.0" fill="#993399" id="Noctopus_somatic" r="6.0" stroke="white" stroke-width="2.0" /><text dominant-baseline="middle" font-family="sans-serif" font-size="inherit" x="155.0" y="395.0">octopus_somatic</text><circle cx="95.0" cy="415.0" fill="#993333" id="Ngatk_scatter_mutect2" r="6.0" stroke="white" stroke-width="2.0" /><text dominant-baseline="middle" font-family="sans-serif" font-size="inherit" x="155.0" y="415.0">gatk_scatter_mutect2</text><circle cx="155.0" cy="435.0" fill="#c65353" id="Ngatk_tumorPileup" r="6.0" stroke="white" stroke-width="2.0" /><text dominant-baseline="middle" font-family="sans-serif" font-size="inherit" x="175.0" y="435.0">gatk_tumorPileup</text><circle cx="75.0" cy="455.0" fill="#c6c653" id="Ngatk_normalPileup" r="6.0" stroke="white" stroke-width="2.0" /><text dominant-baseline="middle" font-family="sans-serif" font-size="inherit" x="175.0" y="455.0">gatk_normalPileup</text><circle cx="55.0" cy="475.0" fill="#53c653" id="Nmuse" r="6.0" stroke="white" stroke-width="2.0" /><text dominant-baseline="middle" font-family="sans-serif" font-size="inherit" x="175.0" y="475.0">muse</text><circle cx="115.0" cy="495.0" fill="#53c6c6" id="Nstrelka" r="6.0" stroke="white" stroke-width="2.0" /><text dominant-baseline="middle" font-family="sans-serif" font-size="inherit" x="175.0" y="495.0">strelka</text><circle cx="135.0" cy="515.0" fill="#5353c6" id="Noctopus_merge" r="6.0" stroke="white" stroke-width="2.0" /><text dominant-baseline="middle" font-family="sans-serif" font-size="inherit" x="175.0" y="515.0">octopus_merge</text><circle cx="35.0" cy="535.0" fill="#c653c6" id="Ngatk_learnReadOrientationModel" r="6.0" stroke="white" stroke-width="2.0" /><text dominant-baseline="middle" font-family="sans-serif" font-size="inherit" x="175.0" y="535.0">gatk_learnReadOrientationModel</text><circle cx="95.0" cy="555.0" fill="#c65353" id="Ngatk_gather_mutect2" r="6.0" stroke="white" stroke-width="2.0" /><text dominant-baseline="middle" font-family="sans-serif" font-size="inherit" x="175.0" y="555.0">gatk_gather_mutect2</text><circle cx="155.0" cy="575.0" fill="#d98c8c" id="Ngatk_contamination" r="6.0" stroke="white" stroke-width="2.0" /><text dominant-baseline="middle" font-family="sans-serif" font-size="inherit" x="175.0" y="575.0">gatk_contamination</text><circle cx="115.0" cy="595.0" fill="#d9d98c" id="Nstrelka_format" r="6.0" stroke="white" stroke-width="2.0" /><text dominant-baseline="middle" font-family="sans-serif" font-size="inherit" x="175.0" y="595.0">strelka_format</text><circle cx="135.0" cy="615.0" fill="#8cd98c" id="Noctopus_filter" r="6.0" stroke="white" stroke-width="2.0" /><text dominant-baseline="middle" font-family="sans-serif" font-size="inherit" x="175.0" y="615.0">octopus_filter</text><circle cx="35.0" cy="635.0" fill="#8cd9d9" id="Ngatk_filter_mutect2" r="6.0" stroke="white" stroke-width="2.0" /><text dominant-baseline="middle" font-family="sans-serif" font-size="inherit" x="175.0" y="635.0">gatk_filter_mutect2</text><circle cx="35.0" cy="655.0" fill="#8c8cd9" id="Nsomatic_selectvar" r="6.0" stroke="white" stroke-width="2.0" /><text dominant-baseline="middle" font-family="sans-serif" font-size="inherit" x="155.0" y="655.0">somatic_selectvar</text><circle cx="35.0" cy="675.0" fill="#d98cd9" id="Nsomatic_merge_tumor" r="6.0" stroke="white" stroke-width="2.0" /><text dominant-baseline="middle" font-family="sans-serif" font-size="inherit" x="55.0" y="675.0">somatic_merge_tumor</text><circle cx="35.0" cy="695.0" fill="#d98c8c" id="Nsomatic_sample_maf" r="6.0" stroke="white" stroke-width="2.0" /><text dominant-baseline="middle" font-family="sans-serif" font-size="inherit" x="55.0" y="695.0">somatic_sample_maf</text><circle cx="115.0" cy="715.0" fill="#993333" id="Nsomatic_cohort_maf" r="6.0" stroke="white" stroke-width="2.0" /><text dominant-baseline="middle" font-family="sans-serif" font-size="inherit" x="135.0" y="715.0">somatic_cohort_maf</text><circle cx="35.0" cy="735.0" fill="#999933" id="Nsomatic_sample_sigprofiler" r="6.0" stroke="white" stroke-width="2.0" /><text dominant-baseline="middle" font-family="sans-serif" font-size="inherit" x="135.0" y="735.0">somatic_sample_sigprofiler</text><circle cx="115.0" cy="755.0" fill="#339933" id="Nsomatic_cohort_maftools" r="6.0" stroke="white" stroke-width="2.0" /><text dominant-baseline="middle" font-family="sans-serif" font-size="inherit" x="135.0" y="755.0">somatic_cohort_maftools</text><circle cx="35.0" cy="775.0" fill="#339999" id="Nsomatic_cohort_sigprofiler" r="6.0" stroke="white" stroke-width="2.0" /><text dominant-baseline="middle" font-family="sans-serif" font-size="inherit" x="55.0" y="775.0">somatic_cohort_sigprofiler</text></g></svg>