<svg baseProfile="full" height="100%" version="1.1" viewBox="25.0,5.0,475.0,340.0" width="100%" xmlns="http://www.w3.org/2000/svg" xmlns:ev="http://www.w3.org/2001/xml-events" xmlns:xlink="http://www.w3.org/1999/xlink"><defs /><g><line stroke="lightgrey" stroke-dasharray="2" x1="130.0" x2="129.0" y1="15.0" y2="15.0" /><line stroke="lightgrey" stroke-dasharray="2" x1="110.0" x2="129.0" y1="35.0" y2="35.0" /><line stroke="lightgrey" stroke-dasharray="2" x1="90.0" x2="129.0" y1="55.0" y2="55.0" /><line stroke="lightgrey" stroke-dasharray="2" x1="70.0" x2="129.0" y1="75.0" y2="75.0" /><line stroke="lightgrey" stroke-dasharray="2" x1="50.0" x2="129.0" y1="95.0" y2="95.0" /><line stroke="lightgrey" stroke-dasharray="2" x1="130.0" x2="129.0" y1="115.0" y2="115.0" /><line stroke="lightgrey" stroke-dasharray="2" x1="70.0" x2="129.0" y1="135.0" y2="135.0" /><line stroke="lightgrey" stroke-dasharray="2" x1="130.0" x2="129.0" y1="155.0" y2="155.0" /><line stroke="lightgrey" stroke-dasharray="2" x1="50.0" x2="129.0" y1="175.0" y2="175.0" /><line stroke="lightgrey" stroke-dasharray="2" x1="70.0" x2="129.0" y1="195.0" y2="195.0" /><line stroke="lightgrey" stroke-dasharray="2" x1="130.0" x2="129.0" y1="215.0" y2="215.0" /><line stroke="lightgrey" stroke-dasharray="2" x1="70.0" x2="129.0" y1="235.0" y2="235.0" /><line stroke="lightgrey" stroke-dasharray="2" x1="50.0" x2="129.0" y1="255.0" y2="255.0" /><line stroke="lightgrey" stroke-dasharray="2" x1="50.0" x2="129.0" y1="275.0" y2="275.0" /><line stroke="lightgrey" stroke-dasharray="2" x1="70.0" x2="129.0" y1="295.0" y2="295.0" /><line stroke="lightgrey" stroke-dasharray="2" x1="70.0" x2="129.0" y1="315.0" y2="315.0" /><line stroke="lightgrey" stroke-dasharray="2" x1="70.0" x2="129.0" y1="335.0" y2="335.0" /></g><g><line stroke="#c65353" stroke-width="2.0" x1="115.0" x2="115.0" y1="15.0" y2="115.0" /><line stroke="#5353c6" stroke-width="2.0" x1="35.0" x2="35.0" y1="95.0" y2="120.0" /><line stroke="#53c6c6" stroke-width="2.0" x1="55.0" x2="55.0" y1="75.0" y2="135.0" /><line stroke="#c653c6" stroke-width="2.0" x1="115.0" x2="115.0" y1="115.0" y2="155.0" /><line stroke="#c65353" stroke-width="2.0" x1="55.0" x2="55.0" y1="135.0" y2="195.0" /><line stroke="#d98c8c" stroke-width="2.0" x1="115.0" x2="115.0" y1="155.0" y2="215.0" /><line stroke="#8cd98c" stroke-width="2.0" x1="55.0" x2="55.0" y1="195.0" y2="235.0" /><line stroke="#8c8cd9" stroke-width="2.0" x1="55.0" x2="55.0" y1="235.0" y2="295.0" /><line stroke="#d98c8c" stroke-width="2.0" x1="35.0" x2="35.0" y1="275.0" y2="320.0" /><line stroke="#999933" stroke-width="2.0" x1="55.0" x2="55.0" y1="315.0" y2="335.0" /><line stroke="#53c653" stroke-width="2.0" x1="75.0" x2="75.0" y1="55.0" y2="320.0" /><line stroke="#c6c653" stroke-width="2.0" x1="95.0" x2="95.0" y1="35.0" y2="320.0" /><line stroke="#8cd9d9" stroke-width="2.0" x1="115.0" x2="115.0" y1="215.0" y2="320.0" /></g><g><line stroke="white" stroke-width="6.0" x1="50.0" x2="55.0" y1="135.0" y2="135.0" /><line stroke="white" stroke-width="6.0" x1="35.0" x2="40.0" y1="175.0" y2="175.0" /><line stroke="white" stroke-width="6.0" x1="35.0" x2="100.0" y1="255.0" y2="255.0" /><line stroke="white" stroke-width="6.0" x1="35.0" x2="100.0" y1="275.0" y2="275.0" /><line stroke="white" stroke-width="6.0" x1="55.0" x2="80.0" y1="295.0" y2="295.0" /><line stroke="white" stroke-width="6.0" x1="50.0" x2="55.0" y1="315.0" y2="315.0" /><line stroke="white" stroke-width="6.0" x1="55.0" x2="100.0" y1="315.0" y2="315.0" /><line stroke="white" stroke-width="6.0" x1="50.0" x2="55.0" y1="335.0" y2="335.0" /><line stroke="white" stroke-width="6.0" x1="55.0" x2="100.0" y1="335.0" y2="335.0" /></g><g><path d="M 35.0,120.0 a15.0,15.0 0 0,0 15.0,15.0" fill="none" stroke="#5353c6" stroke-width="2.0" /><line stroke="#5353c6" stroke-width="2.0" x1="50.0" x2="55.0" y1="135.0" y2="135.0" /><path d="M 55.0,160.0 a15.0,15.0 0 0,1 -15.0,15.0" fill="none" stroke="#c65353" stroke-width="2.0" /><line stroke="#c65353" stroke-width="2.0" x1="35.0" x2="40.0" y1="175.0" y2="175.0" /><path d="M 115.0,240.0 a15.0,15.0 0 0,1 -15.0,15.0" fill="none" stroke="#8cd9d9" stroke-width="2.0" /><line stroke="#8cd9d9" stroke-width="2.0" x1="35.0" x2="100.0" y1="255.0" y2="255.0" /><path d="M 115.0,260.0 a15.0,15.0 0 0,1 -15.0,15.0" fill="none" stroke="#8cd9d9" stroke-width="2.0" /><line stroke="#8cd9d9" stroke-width="2.0" x1="35.0" x2="100.0" y1="275.0" y2="275.0" /><path d="M 95.0,280.0 a15.0,15.0 0 0,1 -15.0,15.0" fill="none" stroke="#c6c653" stroke-width="2.0" /><line stroke="#c6c653" stroke-width="2.0" x1="55.0" x2="80.0" y1="295.0" y2="295.0" /><path d="M 35.0,300.0 a15.0,15.0 0 0,0 15.0,15.0" fill="none" stroke="#d98c8c" stroke-width="2.0" /><line stroke="#d98c8c" stroke-width="2.0" x1="50.0" x2="55.0" y1="315.0" y2="315.0" /><path d="M 95.0,300.0 a15.0,15.0 0 0,1 -15.0,15.0" fill="none" stroke="#c6c653" stroke-width="2.0" /><path d="M 115.0,300.0 a15.0,15.0 0 0,1 -15.0,15.0" fill="none" stroke="#8cd9d9" stroke-width="2.0" /><line stroke="#8cd9d9" stroke-width="2.0" x1="55.0" x2="100.0" y1="315.0" y2="315.0" /><path d="M 35.0,320.0 a15.0,15.0 0 0,0 15.0,15.0" fill="none" stroke="#d98c8c" stroke-width="2.0" /><line stroke="#d98c8c" stroke-width="2.0" x1="50.0" x2="55.0" y1="335.0" y2="335.0" /><path d="M 75.0,320.0 a15.0,15.0 0 0,1 -15.0,15.0" fill="none" stroke="#53c653" stroke-width="2.0" /><path d="M 95.0,320.0 a15.0,15.0 0 0,1 -15.0,15.0" fill="none" stroke="#c6c653" stroke-width="2.0" /><path d="M 115.0,320.0 a15.0,15.0 0 0,1 -15.0,15.0" fill="none" stroke="#8cd9d9" stroke-width="2.0" /><line stroke="#8cd9d9" stroke-width="2.0" x1="55.0" x2="100.0" y1="335.0" y2="335.0" /></g><g><circle cx="115.0" cy="15.0" fill="#c65353" id="Nleafcutter_bam2bed" r="6.0" stroke="white" stroke-width="2.0" /><text dominant-baseline="middle" font-family="sans-serif" font-size="inherit" x="135.0" y="15.0">leafcutter_bam2bed</text><circle cx="95.0" cy="35.0" fill="#c6c653" id="Nleafcutter_gtf2exons" r="6.0" stroke="white" stroke-width="2.0" /><text dominant-baseline="middle" font-family="sans-serif" font-size="inherit" x="135.0" y="35.0">leafcutter_gtf2exons</text><circle cx="75.0" cy="55.0" fill="#53c653" id="Nleafcutter_gtf2leafviz" r="6.0" stroke="white" stroke-width="2.0" /><text dominant-baseline="middle" font-family="sans-serif" font-size="inherit" x="135.0" y="55.0">leafcutter_gtf2leafviz</text><circle cx="55.0" cy="75.0" fill="#53c6c6" id="Nisoformswitchanalyzer_bam2fastq" r="6.0" stroke="white" stroke-width="2.0" /><text dominant-baseline="middle" font-family="sans-serif" font-size="inherit" x="135.0" y="75.0">isoformswitchanalyzer_bam2fastq</text><circle cx="35.0" cy="95.0" fill="#5353c6" id="Nisoformswitchanalyzer_salmon_index" r="6.0" stroke="white" stroke-width="2.0" /><text dominant-baseline="middle" font-family="sans-serif" font-size="inherit" x="135.0" y="95.0">isoformswitchanalyzer_salmon_index</text><circle cx="115.0" cy="115.0" fill="#c653c6" id="Nleafcutter_bed2junc" r="6.0" stroke="white" stroke-width="2.0" /><text dominant-baseline="middle" font-family="sans-serif" font-size="inherit" x="135.0" y="115.0">leafcutter_bed2junc</text><circle cx="55.0" cy="135.0" fill="#c65353" id="Nisoformswitchanalyzer_salmon_quant" r="6.0" stroke="white" stroke-width="2.0" /><text dominant-baseline="middle" font-family="sans-serif" font-size="inherit" x="135.0" y="135.0">isoformswitchanalyzer_salmon_quant</text><circle cx="115.0" cy="155.0" fill="#d98c8c" id="Nleafcutter_gatherjuncs" r="6.0" stroke="white" stroke-width="2.0" /><text dominant-baseline="middle" font-family="sans-serif" font-size="inherit" x="135.0" y="155.0">leafcutter_gatherjuncs</text><circle cx="35.0" cy="175.0" fill="#d9d98c" id="Nisoformswitchanalyzer_salmon_matrix" r="6.0" stroke="white" stroke-width="2.0" /><text dominant-baseline="middle" font-family="sans-serif" font-size="inherit" x="135.0" y="175.0">isoformswitchanalyzer_salmon_matrix</text><circle cx="55.0" cy="195.0" fill="#8cd98c" id="Nisoformswitchanalyzer_mkgroups" r="6.0" stroke="white" stroke-width="2.0" /><text dominant-baseline="middle" font-family="sans-serif" font-size="inherit" x="135.0" y="195.0">isoformswitchanalyzer_mkgroups</text><circle cx="115.0" cy="215.0" fill="#8cd9d9" id="Nleafcutter_clusterjuncs" r="6.0" stroke="white" stroke-width="2.0" /><text dominant-baseline="middle" font-family="sans-serif" font-size="inherit" x="135.0" y="215.0">leafcutter_clusterjuncs</text><circle cx="55.0" cy="235.0" fill="#8c8cd9" id="Nisoformswitchanalyzer_diffswitching" r="6.0" stroke="white" stroke-width="2.0" /><text dominant-baseline="middle" font-family="sans-serif" font-size="inherit" x="135.0" y="235.0">isoformswitchanalyzer_diffswitching</text><circle cx="35.0" cy="255.0" fill="#d98cd9" id="Nleafcutter_clustergenes" r="6.0" stroke="white" stroke-width="2.0" /><text dominant-baseline="middle" font-family="sans-serif" font-size="inherit" x="135.0" y="255.0">leafcutter_clustergenes</text><circle cx="35.0" cy="275.0" fill="#d98c8c" id="Nleafcutter_mkgroups" r="6.0" stroke="white" stroke-width="2.0" /><text dominant-baseline="middle" font-family="sans-serif" font-size="inherit" x="135.0" y="275.0">leafcutter_mkgroups</text><circle cx="55.0" cy="295.0" fill="#993333" id="Nisoformswitchanalyzer_isoformfasta" r="6.0" stroke="white" stroke-width="2.0" /><text dominant-baseline="middle" font-family="sans-serif" font-size="inherit" x="135.0" y="295.0">isoformswitchanalyzer_isoformfasta</text><circle cx="55.0" cy="315.0" fill="#999933" id="Nleafcutter_diffsplicing" r="6.0" stroke="white" stroke-width="2.0" /><text dominant-baseline="middle" font-family="sans-serif" font-size="inherit" x="135.0" y="315.0">leafcutter_diffsplicing</text><circle cx="55.0" cy="335.0" fill="#339933" id="Nleafcutter_prepleafviz" r="6.0" stroke="white" stroke-width="2.0" /><text dominant-baseline="middle" font-family="sans-serif" font-size="inherit" x="135.0" y="335.0">leafcutter_prepleafviz</text></g></svg>