<svg baseProfile="full" height="100%" version="1.1" viewBox="25.0,5.0,475.0,360.0" width="100%" xmlns="http://www.w3.org/2000/svg" xmlns:ev="http://www.w3.org/2001/xml-events" xmlns:xlink="http://www.w3.org/1999/xlink"><defs /><g><line stroke="lightgrey" stroke-dasharray="2" x1="130.0" x2="129.0" y1="15.0" y2="15.0" /><line stroke="lightgrey" stroke-dasharray="2" x1="130.0" x2="129.0" y1="35.0" y2="35.0" /><line stroke="lightgrey" stroke-dasharray="2" x1="130.0" x2="129.0" y1="55.0" y2="55.0" /><line stroke="lightgrey" stroke-dasharray="2" x1="110.0" x2="129.0" y1="75.0" y2="75.0" /><line stroke="lightgrey" stroke-dasharray="2" x1="130.0" x2="129.0" y1="95.0" y2="95.0" /><line stroke="lightgrey" stroke-dasharray="2" x1="110.0" x2="129.0" y1="115.0" y2="115.0" /><line stroke="lightgrey" stroke-dasharray="2" x1="90.0" x2="129.0" y1="135.0" y2="135.0" /><line stroke="lightgrey" stroke-dasharray="2" x1="130.0" x2="129.0" y1="155.0" y2="155.0" /><line stroke="lightgrey" stroke-dasharray="2" x1="110.0" x2="129.0" y1="175.0" y2="175.0" /><line stroke="lightgrey" stroke-dasharray="2" x1="70.0" x2="129.0" y1="195.0" y2="195.0" /><line stroke="lightgrey" stroke-dasharray="2" x1="70.0" x2="129.0" y1="215.0" y2="215.0" /><line stroke="lightgrey" stroke-dasharray="2" x1="50.0" x2="129.0" y1="235.0" y2="235.0" /><line stroke="lightgrey" stroke-dasharray="2" x1="50.0" x2="129.0" y1="255.0" y2="255.0" /><line stroke="lightgrey" stroke-dasharray="2" x1="50.0" x2="129.0" y1="275.0" y2="275.0" /><line stroke="lightgrey" stroke-dasharray="2" x1="110.0" x2="129.0" y1="295.0" y2="295.0" /><line stroke="lightgrey" stroke-dasharray="2" x1="70.0" x2="69.0" y1="315.0" y2="315.0" /><line stroke="lightgrey" stroke-dasharray="2" x1="50.0" x2="69.0" y1="335.0" y2="335.0" /><line stroke="lightgrey" stroke-dasharray="2" x1="70.0" x2="69.0" y1="355.0" y2="355.0" /></g><g><line stroke="#53c653" stroke-width="2.0" x1="115.0" x2="115.0" y1="55.0" y2="95.0" /><line stroke="#5353c6" stroke-width="2.0" x1="115.0" x2="115.0" y1="95.0" y2="155.0" /><line stroke="#c653c6" stroke-width="2.0" x1="95.0" x2="95.0" y1="115.0" y2="175.0" /><line stroke="#c65353" stroke-width="2.0" x1="75.0" x2="75.0" y1="135.0" y2="280.0" /><line stroke="#d9d98c" stroke-width="2.0" x1="95.0" x2="95.0" y1="175.0" y2="295.0" /><line stroke="#d98c8c" stroke-width="2.0" x1="115.0" x2="115.0" y1="155.0" y2="280.0" /><line stroke="#8cd9d9" stroke-width="2.0" x1="55.0" x2="55.0" y1="215.0" y2="315.0" /><line stroke="#d98c8c" stroke-width="2.0" x1="35.0" x2="35.0" y1="275.0" y2="335.0" /><line stroke="#339933" stroke-width="2.0" x1="35.0" x2="35.0" y1="335.0" y2="340.0" /><line stroke="#999933" stroke-width="2.0" x1="55.0" x2="55.0" y1="315.0" y2="355.0" /></g><g><line stroke="white" stroke-width="6.0" x1="95.0" x2="100.0" y1="75.0" y2="75.0" /><line stroke="white" stroke-width="6.0" x1="95.0" x2="100.0" y1="115.0" y2="115.0" /><line stroke="white" stroke-width="6.0" x1="75.0" x2="100.0" y1="135.0" y2="135.0" /><line stroke="white" stroke-width="6.0" x1="55.0" x2="60.0" y1="195.0" y2="195.0" /><line stroke="white" stroke-width="6.0" x1="55.0" x2="60.0" y1="215.0" y2="215.0" /><line stroke="white" stroke-width="6.0" x1="35.0" x2="100.0" y1="235.0" y2="235.0" /><line stroke="white" stroke-width="6.0" x1="35.0" x2="100.0" y1="255.0" y2="255.0" /><line stroke="white" stroke-width="6.0" x1="35.0" x2="100.0" y1="275.0" y2="275.0" /><line stroke="white" stroke-width="6.0" x1="90.0" x2="95.0" y1="295.0" y2="295.0" /><line stroke="white" stroke-width="6.0" x1="95.0" x2="100.0" y1="295.0" y2="295.0" /><line stroke="white" stroke-width="6.0" x1="50.0" x2="55.0" y1="355.0" y2="355.0" /></g><g><path d="M 115.0,60.0 a15.0,15.0 0 0,1 -15.0,15.0" fill="none" stroke="#53c653" stroke-width="2.0" /><line stroke="#53c653" stroke-width="2.0" x1="95.0" x2="100.0" y1="75.0" y2="75.0" /><path d="M 115.0,100.0 a15.0,15.0 0 0,1 -15.0,15.0" fill="none" stroke="#5353c6" stroke-width="2.0" /><line stroke="#5353c6" stroke-width="2.0" x1="95.0" x2="100.0" y1="115.0" y2="115.0" /><path d="M 115.0,120.0 a15.0,15.0 0 0,1 -15.0,15.0" fill="none" stroke="#5353c6" stroke-width="2.0" /><line stroke="#5353c6" stroke-width="2.0" x1="75.0" x2="100.0" y1="135.0" y2="135.0" /><path d="M 75.0,180.0 a15.0,15.0 0 0,1 -15.0,15.0" fill="none" stroke="#c65353" stroke-width="2.0" /><line stroke="#c65353" stroke-width="2.0" x1="55.0" x2="60.0" y1="195.0" y2="195.0" /><path d="M 75.0,200.0 a15.0,15.0 0 0,1 -15.0,15.0" fill="none" stroke="#c65353" stroke-width="2.0" /><line stroke="#c65353" stroke-width="2.0" x1="55.0" x2="60.0" y1="215.0" y2="215.0" /><path d="M 115.0,220.0 a15.0,15.0 0 0,1 -15.0,15.0" fill="none" stroke="#d98c8c" stroke-width="2.0" /><line stroke="#d98c8c" stroke-width="2.0" x1="35.0" x2="100.0" y1="235.0" y2="235.0" /><path d="M 75.0,240.0 a15.0,15.0 0 0,1 -15.0,15.0" fill="none" stroke="#c65353" stroke-width="2.0" /><path d="M 115.0,240.0 a15.0,15.0 0 0,1 -15.0,15.0" fill="none" stroke="#d98c8c" stroke-width="2.0" /><line stroke="#d98c8c" stroke-width="2.0" x1="35.0" x2="100.0" y1="255.0" y2="255.0" /><path d="M 115.0,260.0 a15.0,15.0 0 0,1 -15.0,15.0" fill="none" stroke="#d98c8c" stroke-width="2.0" /><line stroke="#d98c8c" stroke-width="2.0" x1="35.0" x2="100.0" y1="275.0" y2="275.0" /><path d="M 75.0,280.0 a15.0,15.0 0 0,0 15.0,15.0" fill="none" stroke="#c65353" stroke-width="2.0" /><line stroke="#c65353" stroke-width="2.0" x1="90.0" x2="95.0" y1="295.0" y2="295.0" /><path d="M 115.0,280.0 a15.0,15.0 0 0,1 -15.0,15.0" fill="none" stroke="#d98c8c" stroke-width="2.0" /><line stroke="#d98c8c" stroke-width="2.0" x1="95.0" x2="100.0" y1="295.0" y2="295.0" /><path d="M 35.0,340.0 a15.0,15.0 0 0,0 15.0,15.0" fill="none" stroke="#339933" stroke-width="2.0" /><line stroke="#339933" stroke-width="2.0" x1="50.0" x2="55.0" y1="355.0" y2="355.0" /></g><g><circle cx="115.0" cy="15.0" fill="#c65353" id="Nfc_lane" r="6.0" stroke="white" stroke-width="2.0" /><text dominant-baseline="middle" font-family="sans-serif" font-size="inherit" x="135.0" y="15.0">fc_lane</text><circle cx="115.0" cy="35.0" fill="#c6c653" id="Nrawfastqc" r="6.0" stroke="white" stroke-width="2.0" /><text dominant-baseline="middle" font-family="sans-serif" font-size="inherit" x="135.0" y="35.0">rawfastqc</text><circle cx="115.0" cy="55.0" fill="#53c653" id="Ntrim" r="6.0" stroke="white" stroke-width="2.0" /><text dominant-baseline="middle" font-family="sans-serif" font-size="inherit" x="135.0" y="55.0">trim</text><circle cx="95.0" cy="75.0" fill="#53c6c6" id="Nfastqc" r="6.0" stroke="white" stroke-width="2.0" /><text dominant-baseline="middle" font-family="sans-serif" font-size="inherit" x="135.0" y="75.0">fastqc</text><circle cx="115.0" cy="95.0" fill="#5353c6" id="Nremove_host" r="6.0" stroke="white" stroke-width="2.0" /><text dominant-baseline="middle" font-family="sans-serif" font-size="inherit" x="135.0" y="95.0">remove_host</text><circle cx="95.0" cy="115.0" fill="#c653c6" id="Nkraken_viral" r="6.0" stroke="white" stroke-width="2.0" /><text dominant-baseline="middle" font-family="sans-serif" font-size="inherit" x="135.0" y="115.0">kraken_viral</text><circle cx="75.0" cy="135.0" fill="#c65353" id="Nmetaspades" r="6.0" stroke="white" stroke-width="2.0" /><text dominant-baseline="middle" font-family="sans-serif" font-size="inherit" x="135.0" y="135.0">metaspades</text><circle cx="115.0" cy="155.0" fill="#d98c8c" id="Nmegahit" r="6.0" stroke="white" stroke-width="2.0" /><text dominant-baseline="middle" font-family="sans-serif" font-size="inherit" x="135.0" y="155.0">megahit</text><circle cx="95.0" cy="175.0" fill="#d9d98c" id="Nprep_metaquast" r="6.0" stroke="white" stroke-width="2.0" /><text dominant-baseline="middle" font-family="sans-serif" font-size="inherit" x="135.0" y="175.0">prep_metaquast</text><circle cx="55.0" cy="195.0" fill="#8cd98c" id="Nblast_metaspades_contigs" r="6.0" stroke="white" stroke-width="2.0" /><text dominant-baseline="middle" font-family="sans-serif" font-size="inherit" x="135.0" y="195.0">blast_metaspades_contigs</text><circle cx="55.0" cy="215.0" fill="#8cd9d9" id="Nprep_aggregate_metaspades_scatter" r="6.0" stroke="white" stroke-width="2.0" /><text dominant-baseline="middle" font-family="sans-serif" font-size="inherit" x="135.0" y="215.0">prep_aggregate_metaspades_scatter</text><circle cx="35.0" cy="235.0" fill="#8c8cd9" id="Nblast_megahit_contigs" r="6.0" stroke="white" stroke-width="2.0" /><text dominant-baseline="middle" font-family="sans-serif" font-size="inherit" x="135.0" y="235.0">blast_megahit_contigs</text><circle cx="35.0" cy="255.0" fill="#d98cd9" id="Nkrona" r="6.0" stroke="white" stroke-width="2.0" /><text dominant-baseline="middle" font-family="sans-serif" font-size="inherit" x="135.0" y="255.0">krona</text><circle cx="35.0" cy="275.0" fill="#d98c8c" id="Nprep_aggregate_megahit_scatter" r="6.0" stroke="white" stroke-width="2.0" /><text dominant-baseline="middle" font-family="sans-serif" font-size="inherit" x="135.0" y="275.0">prep_aggregate_megahit_scatter</text><circle cx="95.0" cy="295.0" fill="#993333" id="Nmetaquast" r="6.0" stroke="white" stroke-width="2.0" /><text dominant-baseline="middle" font-family="sans-serif" font-size="inherit" x="135.0" y="295.0">metaquast</text><circle cx="55.0" cy="315.0" fill="#999933" id="Nprep_aggregate_metaspades_gather" r="6.0" stroke="white" stroke-width="2.0" /><text dominant-baseline="middle" font-family="sans-serif" font-size="inherit" x="75.0" y="315.0">prep_aggregate_metaspades_gather</text><circle cx="35.0" cy="335.0" fill="#339933" id="Nprep_aggregate_megahit_gather" r="6.0" stroke="white" stroke-width="2.0" /><text dominant-baseline="middle" font-family="sans-serif" font-size="inherit" x="75.0" y="335.0">prep_aggregate_megahit_gather</text><circle cx="55.0" cy="355.0" fill="#339999" id="Naggregate" r="6.0" stroke="white" stroke-width="2.0" /><text dominant-baseline="middle" font-family="sans-serif" font-size="inherit" x="75.0" y="355.0">aggregate</text></g></svg>