<svg baseProfile="full" height="100%" version="1.1" viewBox="25.0,5.0,475.0,540.0" width="100%" xmlns="http://www.w3.org/2000/svg" xmlns:ev="http://www.w3.org/2001/xml-events" xmlns:xlink="http://www.w3.org/1999/xlink"><defs /><g><line stroke="lightgrey" stroke-dasharray="2" x1="190.0" x2="189.0" y1="15.0" y2="15.0" /><line stroke="lightgrey" stroke-dasharray="2" x1="170.0" x2="189.0" y1="35.0" y2="35.0" /><line stroke="lightgrey" stroke-dasharray="2" x1="150.0" x2="189.0" y1="55.0" y2="55.0" /><line stroke="lightgrey" stroke-dasharray="2" x1="130.0" x2="189.0" y1="75.0" y2="75.0" /><line stroke="lightgrey" stroke-dasharray="2" x1="110.0" x2="189.0" y1="95.0" y2="95.0" /><line stroke="lightgrey" stroke-dasharray="2" x1="110.0" x2="189.0" y1="115.0" y2="115.0" /><line stroke="lightgrey" stroke-dasharray="2" x1="130.0" x2="189.0" y1="135.0" y2="135.0" /><line stroke="lightgrey" stroke-dasharray="2" x1="130.0" x2="189.0" y1="155.0" y2="155.0" /><line stroke="lightgrey" stroke-dasharray="2" x1="130.0" x2="189.0" y1="175.0" y2="175.0" /><line stroke="lightgrey" stroke-dasharray="2" x1="90.0" x2="189.0" y1="195.0" y2="195.0" /><line stroke="lightgrey" stroke-dasharray="2" x1="70.0" x2="189.0" y1="215.0" y2="215.0" /><line stroke="lightgrey" stroke-dasharray="2" x1="50.0" x2="189.0" y1="235.0" y2="235.0" /><line stroke="lightgrey" stroke-dasharray="2" x1="50.0" x2="189.0" y1="255.0" y2="255.0" /><line stroke="lightgrey" stroke-dasharray="2" x1="50.0" x2="189.0" y1="275.0" y2="275.0" /><line stroke="lightgrey" stroke-dasharray="2" x1="130.0" x2="189.0" y1="295.0" y2="295.0" /><line stroke="lightgrey" stroke-dasharray="2" x1="50.0" x2="189.0" y1="315.0" y2="315.0" /><line stroke="lightgrey" stroke-dasharray="2" x1="70.0" x2="189.0" y1="335.0" y2="335.0" /><line stroke="lightgrey" stroke-dasharray="2" x1="130.0" x2="189.0" y1="355.0" y2="355.0" /><line stroke="lightgrey" stroke-dasharray="2" x1="50.0" x2="189.0" y1="375.0" y2="375.0" /><line stroke="lightgrey" stroke-dasharray="2" x1="70.0" x2="189.0" y1="395.0" y2="395.0" /><line stroke="lightgrey" stroke-dasharray="2" x1="50.0" x2="189.0" y1="415.0" y2="415.0" /><line stroke="lightgrey" stroke-dasharray="2" x1="150.0" x2="189.0" y1="435.0" y2="435.0" /><line stroke="lightgrey" stroke-dasharray="2" x1="70.0" x2="149.0" y1="455.0" y2="455.0" /><line stroke="lightgrey" stroke-dasharray="2" x1="150.0" x2="149.0" y1="475.0" y2="475.0" /><line stroke="lightgrey" stroke-dasharray="2" x1="150.0" x2="149.0" y1="495.0" y2="495.0" /><line stroke="lightgrey" stroke-dasharray="2" x1="150.0" x2="149.0" y1="515.0" y2="515.0" /><line stroke="lightgrey" stroke-dasharray="2" x1="150.0" x2="149.0" y1="535.0" y2="535.0" /></g><g><line stroke="#53c6c6" stroke-width="2.0" x1="115.0" x2="115.0" y1="75.0" y2="135.0" /><line stroke="#d9d98c" stroke-width="2.0" x1="115.0" x2="115.0" y1="175.0" y2="295.0" /><line stroke="#8cd9d9" stroke-width="2.0" x1="55.0" x2="55.0" y1="215.0" y2="335.0" /><line stroke="#8cd98c" stroke-width="2.0" x1="75.0" x2="75.0" y1="195.0" y2="320.0" /><line stroke="#993333" stroke-width="2.0" x1="115.0" x2="115.0" y1="295.0" y2="355.0" /><line stroke="#c6c653" stroke-width="2.0" x1="155.0" x2="155.0" y1="35.0" y2="340.0" /><line stroke="#999933" stroke-width="2.0" x1="35.0" x2="35.0" y1="315.0" y2="375.0" /><line stroke="#339933" stroke-width="2.0" x1="55.0" x2="55.0" y1="335.0" y2="395.0" /><line stroke="#339999" stroke-width="2.0" x1="115.0" x2="115.0" y1="355.0" y2="420.0" /><line stroke="#53c653" stroke-width="2.0" x1="135.0" x2="135.0" y1="55.0" y2="435.0" /><line stroke="#c65353" stroke-width="2.0" x1="175.0" x2="175.0" y1="15.0" y2="420.0" /><line stroke="#993399" stroke-width="2.0" x1="55.0" x2="55.0" y1="395.0" y2="455.0" /><line stroke="#c65353" stroke-width="2.0" x1="135.0" x2="135.0" y1="435.0" y2="475.0" /><line stroke="#c653c6" stroke-width="2.0" x1="95.0" x2="95.0" y1="115.0" y2="480.0" /><line stroke="#53c653" stroke-width="2.0" x1="135.0" x2="135.0" y1="475.0" y2="495.0" /><line stroke="#53c6c6" stroke-width="2.0" x1="135.0" x2="135.0" y1="495.0" y2="515.0" /><line stroke="#5353c6" stroke-width="2.0" x1="135.0" x2="135.0" y1="515.0" y2="535.0" /></g><g><line stroke="white" stroke-width="6.0" x1="95.0" x2="160.0" y1="95.0" y2="95.0" /><line stroke="white" stroke-width="6.0" x1="95.0" x2="100.0" y1="115.0" y2="115.0" /><line stroke="white" stroke-width="6.0" x1="110.0" x2="115.0" y1="155.0" y2="155.0" /><line stroke="white" stroke-width="6.0" x1="110.0" x2="115.0" y1="175.0" y2="175.0" /><line stroke="white" stroke-width="6.0" x1="115.0" x2="160.0" y1="175.0" y2="175.0" /><line stroke="white" stroke-width="6.0" x1="75.0" x2="140.0" y1="195.0" y2="195.0" /><line stroke="white" stroke-width="6.0" x1="55.0" x2="80.0" y1="215.0" y2="215.0" /><line stroke="white" stroke-width="6.0" x1="35.0" x2="100.0" y1="235.0" y2="235.0" /><line stroke="white" stroke-width="6.0" x1="35.0" x2="100.0" y1="255.0" y2="255.0" /><line stroke="white" stroke-width="6.0" x1="35.0" x2="100.0" y1="275.0" y2="275.0" /><line stroke="white" stroke-width="6.0" x1="115.0" x2="160.0" y1="295.0" y2="295.0" /><line stroke="white" stroke-width="6.0" x1="35.0" x2="60.0" y1="315.0" y2="315.0" /><line stroke="white" stroke-width="6.0" x1="55.0" x2="140.0" y1="335.0" y2="335.0" /><line stroke="white" stroke-width="6.0" x1="110.0" x2="115.0" y1="355.0" y2="355.0" /><line stroke="white" stroke-width="6.0" x1="115.0" x2="160.0" y1="355.0" y2="355.0" /><line stroke="white" stroke-width="6.0" x1="35.0" x2="100.0" y1="415.0" y2="415.0" /><line stroke="white" stroke-width="6.0" x1="130.0" x2="135.0" y1="435.0" y2="435.0" /><line stroke="white" stroke-width="6.0" x1="135.0" x2="160.0" y1="435.0" y2="435.0" /><line stroke="white" stroke-width="6.0" x1="110.0" x2="135.0" y1="495.0" y2="495.0" /></g><g><path d="M 175.0,80.0 a15.0,15.0 0 0,1 -15.0,15.0" fill="none" stroke="#c65353" stroke-width="2.0" /><line stroke="#c65353" stroke-width="2.0" x1="95.0" x2="160.0" y1="95.0" y2="95.0" /><path d="M 115.0,100.0 a15.0,15.0 0 0,1 -15.0,15.0" fill="none" stroke="#53c6c6" stroke-width="2.0" /><line stroke="#53c6c6" stroke-width="2.0" x1="95.0" x2="100.0" y1="115.0" y2="115.0" /><path d="M 95.0,140.0 a15.0,15.0 0 0,0 15.0,15.0" fill="none" stroke="#c653c6" stroke-width="2.0" /><line stroke="#c653c6" stroke-width="2.0" x1="110.0" x2="115.0" y1="155.0" y2="155.0" /><path d="M 95.0,160.0 a15.0,15.0 0 0,0 15.0,15.0" fill="none" stroke="#c653c6" stroke-width="2.0" /><line stroke="#c653c6" stroke-width="2.0" x1="110.0" x2="115.0" y1="175.0" y2="175.0" /><path d="M 175.0,160.0 a15.0,15.0 0 0,1 -15.0,15.0" fill="none" stroke="#c65353" stroke-width="2.0" /><line stroke="#c65353" stroke-width="2.0" x1="115.0" x2="160.0" y1="175.0" y2="175.0" /><path d="M 95.0,180.0 a15.0,15.0 0 0,1 -15.0,15.0" fill="none" stroke="#c653c6" stroke-width="2.0" /><path d="M 155.0,180.0 a15.0,15.0 0 0,1 -15.0,15.0" fill="none" stroke="#c6c653" stroke-width="2.0" /><line stroke="#c6c653" stroke-width="2.0" x1="75.0" x2="140.0" y1="195.0" y2="195.0" /><path d="M 95.0,200.0 a15.0,15.0 0 0,1 -15.0,15.0" fill="none" stroke="#c653c6" stroke-width="2.0" /><line stroke="#c653c6" stroke-width="2.0" x1="55.0" x2="80.0" y1="215.0" y2="215.0" /><path d="M 115.0,220.0 a15.0,15.0 0 0,1 -15.0,15.0" fill="none" stroke="#d9d98c" stroke-width="2.0" /><line stroke="#d9d98c" stroke-width="2.0" x1="35.0" x2="100.0" y1="235.0" y2="235.0" /><path d="M 115.0,240.0 a15.0,15.0 0 0,1 -15.0,15.0" fill="none" stroke="#d9d98c" stroke-width="2.0" /><line stroke="#d9d98c" stroke-width="2.0" x1="35.0" x2="100.0" y1="255.0" y2="255.0" /><path d="M 115.0,260.0 a15.0,15.0 0 0,1 -15.0,15.0" fill="none" stroke="#d9d98c" stroke-width="2.0" /><line stroke="#d9d98c" stroke-width="2.0" x1="35.0" x2="100.0" y1="275.0" y2="275.0" /><path d="M 135.0,280.0 a15.0,15.0 0 0,1 -15.0,15.0" fill="none" stroke="#53c653" stroke-width="2.0" /><path d="M 175.0,280.0 a15.0,15.0 0 0,1 -15.0,15.0" fill="none" stroke="#c65353" stroke-width="2.0" /><line stroke="#c65353" stroke-width="2.0" x1="115.0" x2="160.0" y1="295.0" y2="295.0" /><path d="M 75.0,300.0 a15.0,15.0 0 0,1 -15.0,15.0" fill="none" stroke="#8cd98c" stroke-width="2.0" /><line stroke="#8cd98c" stroke-width="2.0" x1="35.0" x2="60.0" y1="315.0" y2="315.0" /><path d="M 75.0,320.0 a15.0,15.0 0 0,1 -15.0,15.0" fill="none" stroke="#8cd98c" stroke-width="2.0" /><path d="M 95.0,320.0 a15.0,15.0 0 0,1 -15.0,15.0" fill="none" stroke="#c653c6" stroke-width="2.0" /><path d="M 155.0,320.0 a15.0,15.0 0 0,1 -15.0,15.0" fill="none" stroke="#c6c653" stroke-width="2.0" /><line stroke="#c6c653" stroke-width="2.0" x1="55.0" x2="140.0" y1="335.0" y2="335.0" /><path d="M 95.0,340.0 a15.0,15.0 0 0,0 15.0,15.0" fill="none" stroke="#c653c6" stroke-width="2.0" /><line stroke="#c653c6" stroke-width="2.0" x1="110.0" x2="115.0" y1="355.0" y2="355.0" /><path d="M 135.0,340.0 a15.0,15.0 0 0,1 -15.0,15.0" fill="none" stroke="#53c653" stroke-width="2.0" /><path d="M 155.0,340.0 a15.0,15.0 0 0,1 -15.0,15.0" fill="none" stroke="#c6c653" stroke-width="2.0" /><path d="M 175.0,340.0 a15.0,15.0 0 0,1 -15.0,15.0" fill="none" stroke="#c65353" stroke-width="2.0" /><line stroke="#c65353" stroke-width="2.0" x1="115.0" x2="160.0" y1="355.0" y2="355.0" /><path d="M 95.0,400.0 a15.0,15.0 0 0,1 -15.0,15.0" fill="none" stroke="#c653c6" stroke-width="2.0" /><path d="M 115.0,400.0 a15.0,15.0 0 0,1 -15.0,15.0" fill="none" stroke="#339999" stroke-width="2.0" /><line stroke="#339999" stroke-width="2.0" x1="35.0" x2="100.0" y1="415.0" y2="415.0" /><path d="M 115.0,420.0 a15.0,15.0 0 0,0 15.0,15.0" fill="none" stroke="#339999" stroke-width="2.0" /><line stroke="#339999" stroke-width="2.0" x1="130.0" x2="135.0" y1="435.0" y2="435.0" /><path d="M 175.0,420.0 a15.0,15.0 0 0,1 -15.0,15.0" fill="none" stroke="#c65353" stroke-width="2.0" /><line stroke="#c65353" stroke-width="2.0" x1="135.0" x2="160.0" y1="435.0" y2="435.0" /><path d="M 95.0,480.0 a15.0,15.0 0 0,0 15.0,15.0" fill="none" stroke="#c653c6" stroke-width="2.0" /><line stroke="#c653c6" stroke-width="2.0" x1="110.0" x2="135.0" y1="495.0" y2="495.0" /></g><g><circle cx="175.0" cy="15.0" fill="#c65353" id="Ndownload_genome" r="6.0" stroke="white" stroke-width="2.0" /><text dominant-baseline="middle" font-family="sans-serif" font-size="inherit" x="195.0" y="15.0">download_genome</text><circle cx="155.0" cy="35.0" fill="#c6c653" id="Ndownload_transcriptome" r="6.0" stroke="white" stroke-width="2.0" /><text dominant-baseline="middle" font-family="sans-serif" font-size="inherit" x="195.0" y="35.0">download_transcriptome</text><circle cx="135.0" cy="55.0" fill="#53c653" id="Ndownload_gtf" r="6.0" stroke="white" stroke-width="2.0" /><text dominant-baseline="middle" font-family="sans-serif" font-size="inherit" x="195.0" y="55.0">download_gtf</text><circle cx="115.0" cy="75.0" fill="#53c6c6" id="Nsetup" r="6.0" stroke="white" stroke-width="2.0" /><text dominant-baseline="middle" font-family="sans-serif" font-size="inherit" x="195.0" y="75.0">setup</text><circle cx="95.0" cy="95.0" fill="#5353c6" id="Ndinopore_fadict" r="6.0" stroke="white" stroke-width="2.0" /><text dominant-baseline="middle" font-family="sans-serif" font-size="inherit" x="195.0" y="95.0">dinopore_fadict</text><circle cx="95.0" cy="115.0" fill="#c653c6" id="Nnanofilt" r="6.0" stroke="white" stroke-width="2.0" /><text dominant-baseline="middle" font-family="sans-serif" font-size="inherit" x="195.0" y="115.0">nanofilt</text><circle cx="115.0" cy="135.0" fill="#c65353" id="Nfastqc_raw" r="6.0" stroke="white" stroke-width="2.0" /><text dominant-baseline="middle" font-family="sans-serif" font-size="inherit" x="195.0" y="135.0">fastqc_raw</text><circle cx="115.0" cy="155.0" fill="#d98c8c" id="Nfastqc_filtered" r="6.0" stroke="white" stroke-width="2.0" /><text dominant-baseline="middle" font-family="sans-serif" font-size="inherit" x="195.0" y="155.0">fastqc_filtered</text><circle cx="115.0" cy="175.0" fill="#d9d98c" id="Nminimap2_genome" r="6.0" stroke="white" stroke-width="2.0" /><text dominant-baseline="middle" font-family="sans-serif" font-size="inherit" x="195.0" y="175.0">minimap2_genome</text><circle cx="75.0" cy="195.0" fill="#8cd98c" id="Nminimap2_transcriptome" r="6.0" stroke="white" stroke-width="2.0" /><text dominant-baseline="middle" font-family="sans-serif" font-size="inherit" x="195.0" y="195.0">minimap2_transcriptome</text><circle cx="55.0" cy="215.0" fill="#8cd9d9" id="Nnanopolish_index" r="6.0" stroke="white" stroke-width="2.0" /><text dominant-baseline="middle" font-family="sans-serif" font-size="inherit" x="195.0" y="215.0">nanopolish_index</text><circle cx="35.0" cy="235.0" fill="#8c8cd9" id="Nstranded_bigwigs" r="6.0" stroke="white" stroke-width="2.0" /><text dominant-baseline="middle" font-family="sans-serif" font-size="inherit" x="195.0" y="235.0">stranded_bigwigs</text><circle cx="35.0" cy="255.0" fill="#d98cd9" id="Nnanoplot" r="6.0" stroke="white" stroke-width="2.0" /><text dominant-baseline="middle" font-family="sans-serif" font-size="inherit" x="195.0" y="255.0">nanoplot</text><circle cx="35.0" cy="275.0" fill="#d98c8c" id="Nnanostat" r="6.0" stroke="white" stroke-width="2.0" /><text dominant-baseline="middle" font-family="sans-serif" font-size="inherit" x="195.0" y="275.0">nanostat</text><circle cx="115.0" cy="295.0" fill="#993333" id="Nflair_correct" r="6.0" stroke="white" stroke-width="2.0" /><text dominant-baseline="middle" font-family="sans-serif" font-size="inherit" x="195.0" y="295.0">flair_correct</text><circle cx="35.0" cy="315.0" fill="#999933" id="Nnanocount" r="6.0" stroke="white" stroke-width="2.0" /><text dominant-baseline="middle" font-family="sans-serif" font-size="inherit" x="195.0" y="315.0">nanocount</text><circle cx="55.0" cy="335.0" fill="#339933" id="Nnanopolish_polya" r="6.0" stroke="white" stroke-width="2.0" /><text dominant-baseline="middle" font-family="sans-serif" font-size="inherit" x="195.0" y="335.0">nanopolish_polya</text><circle cx="115.0" cy="355.0" fill="#339999" id="Nflair_collapse" r="6.0" stroke="white" stroke-width="2.0" /><text dominant-baseline="middle" font-family="sans-serif" font-size="inherit" x="195.0" y="355.0">flair_collapse</text><circle cx="35.0" cy="375.0" fill="#333399" id="Nnanocount_aggregate" r="6.0" stroke="white" stroke-width="2.0" /><text dominant-baseline="middle" font-family="sans-serif" font-size="inherit" x="195.0" y="375.0">nanocount_aggregate</text><circle cx="55.0" cy="395.0" fill="#993399" id="Nnanopolish_polya_filter" r="6.0" stroke="white" stroke-width="2.0" /><text dominant-baseline="middle" font-family="sans-serif" font-size="inherit" x="195.0" y="395.0">nanopolish_polya_filter</text><circle cx="35.0" cy="415.0" fill="#993333" id="Nflair_quantify" r="6.0" stroke="white" stroke-width="2.0" /><text dominant-baseline="middle" font-family="sans-serif" font-size="inherit" x="195.0" y="415.0">flair_quantify</text><circle cx="135.0" cy="435.0" fill="#c65353" id="Nsqanti_qc" r="6.0" stroke="white" stroke-width="2.0" /><text dominant-baseline="middle" font-family="sans-serif" font-size="inherit" x="195.0" y="435.0">sqanti_qc</text><circle cx="55.0" cy="455.0" fill="#c6c653" id="Nnanopolish_polya_matrix" r="6.0" stroke="white" stroke-width="2.0" /><text dominant-baseline="middle" font-family="sans-serif" font-size="inherit" x="155.0" y="455.0">nanopolish_polya_matrix</text><circle cx="135.0" cy="475.0" fill="#53c653" id="Nsqanti_ml_filter" r="6.0" stroke="white" stroke-width="2.0" /><text dominant-baseline="middle" font-family="sans-serif" font-size="inherit" x="155.0" y="475.0">sqanti_ml_filter</text><circle cx="135.0" cy="495.0" fill="#53c6c6" id="Nsqanti_minimap2" r="6.0" stroke="white" stroke-width="2.0" /><text dominant-baseline="middle" font-family="sans-serif" font-size="inherit" x="155.0" y="495.0">sqanti_minimap2</text><circle cx="135.0" cy="515.0" fill="#5353c6" id="Nsqanti_nanocount" r="6.0" stroke="white" stroke-width="2.0" /><text dominant-baseline="middle" font-family="sans-serif" font-size="inherit" x="155.0" y="515.0">sqanti_nanocount</text><circle cx="135.0" cy="535.0" fill="#c653c6" id="Nsqanti_nanocount_aggregate" r="6.0" stroke="white" stroke-width="2.0" /><text dominant-baseline="middle" font-family="sans-serif" font-size="inherit" x="155.0" y="535.0">sqanti_nanocount_aggregate</text></g></svg>